OxygenSans-Book.sfdir
StartChar: exclam
Encoding: 33 33 211
Width: 563
VWidth: 0
GlyphClass: 2
Flags: W
HStem: -13 229<189.935 378.065>
VStem: 169 230<8.62109 194.695> 192 176<1112.86 1464>
LayerCount: 2
UndoRedoHistory
Layer: 1
Undoes
EndUndoes
Redoes
EndRedoes
EndUndoRedoHistory
Fore
SplineSet
250 418 m 1xa0
 192 1341 l 1
 192 1464 l 1
 368 1464 l 1
 368 1341 l 1
 316 418 l 1
 250 418 l 1xa0
284 -13 m 0
 204 -13 169 46 169 102 c 0
 169 158 204 216 284 216 c 0
 364 216 399 158 399 102 c 0xc0
 399 44 364 -13 284 -13 c 0
EndSplineSet
EndChar
StartChar: quotedbl
Encoding: 34 34 309
Width: 641
VWidth: 0
Flags: W
HStem: 1000 468<153 238 423 509>
VStem: 153 85<1000 1197.33> 423 86<1000 1203.31>
LayerCount: 2
UndoRedoHistory
Layer: 1
Undoes
EndUndoes
Redoes
EndRedoes
EndUndoRedoHistory
Fore
SplineSet
153 1000 m 1
 119 1468 l 1
 267 1468 l 1
 238 1000 l 1
 153 1000 l 1
423 1000 m 1
 390 1468 l 1
 538 1468 l 1
 509 1000 l 1
 423 1000 l 1
EndSplineSet
EndChar
StartChar: numbersign
Encoding: 35 35 275
Width: 1203
VWidth: 0
Flags: W
HStem: -20 21G<207 325.918 584 702.918> 419 89<137 293 425 669 803 977> 935 89<224 394 527 771 904 1064>
LayerCount: 2
UndoRedoHistory
Layer: 1
Undoes
EndUndoes
Redoes
EndRedoes
EndUndoRedoHistory
Fore
SplineSet
584 -20 m 1
 669 419 l 1
 408 419 l 1
 322 -20 l 1
 207 -20 l 1
 293 419 l 1
 125 419 l 1
 137 508 l 1
 310 508 l 1
 394 935 l 1
 212 935 l 1
 224 1024 l 1
 411 1024 l 1
 489 1419 l 1
 605 1419 l 1
 527 1024 l 1
 789 1024 l 1
 867 1419 l 1
 982 1419 l 1
 904 1024 l 1
 1078 1024 l 1
 1064 935 l 1
 887 935 l 1
 803 508 l 1
 991 508 l 1
 977 419 l 1
 785 419 l 1
 699 -20 l 1
 584 -20 l 1
687 508 m 1
 771 935 l 1
 510 935 l 1
 425 508 l 1
 687 508 l 1
EndSplineSet
EndChar
StartChar: dollar
Encoding: 36 36 193
Width: 1167
VWidth: 0
Flags: W
HStem: -19 139<336.547 790.849> 1341 139<407.94 843.437>
VStem: 138 162<974.021 1242.63> 572 66<1645.47 1735> 588 66<-278 -188.468> 907 161<228.416 532.104>
LayerCount: 2
UndoRedoHistory
Layer: 1
Undoes
EndUndoes
Redoes
EndRedoes
EndUndoRedoHistory
Fore
SplineSet
588 -278 m 1xec
 535 53 l 1
 692 53 l 1
 654 -278 l 1
 588 -278 l 1xec
638 1735 m 1xf4
 691 1404 l 1
 534 1404 l 1
 572 1735 l 1
 638 1735 l 1xf4
EndSplineSet
Refer: 100 83 N 1 0 0 1 0 0 2
EndChar
StartChar: percent
Encoding: 37 37 299
Width: 1789
VWidth: 0
Flags: W
HStem: -13 93<1266.94 1533.57> 638 94<1267.75 1536.14> 706 94<280.945 547.569> 1357 93<281.746 550.144>
VStem: 75 116<896.602 1260.73> 638 116<897.618 1262.61> 1061 116<173.449 541.843> 1624 116<178.403 543.727>
LayerCount: 2
UndoRedoHistory
Layer: 1
Undoes
EndUndoes
Redoes
EndRedoes
EndUndoRedoHistory
Fore
SplineSet
430 0 m 1x9f
 1260 1440 l 1
 1382 1440 l 1
 562 0 l 1
 430 0 l 1x9f
414 706 m 0xbf
 188 706 75 869 75 1079 c 0
 75 1290 192 1450 414 1450 c 0
 641 1450 754 1293 754 1079 c 0
 754 869 638 706 414 706 c 0xbf
415 800 m 0
 571 800 638 923 638 1080 c 0
 638 1243 570 1357 415 1357 c 0
 259 1357 191 1237 191 1080 c 0
 191 918 259 800 415 800 c 0
1401 80 m 0
 1557 80 1624 204 1624 361 c 0
 1624 524 1556 638 1401 638 c 0xdf
 1245 638 1177 518 1177 361 c 0
 1177 199 1245 80 1401 80 c 0
1400 -13 m 0
 1174 -13 1061 150 1061 360 c 0
 1061 571 1178 732 1400 732 c 0
 1627 732 1740 574 1740 360 c 0
 1740 150 1624 -13 1400 -13 c 0
EndSplineSet
EndChar
StartChar: ampersand
Encoding: 38 38 151
Width: 1436
VWidth: 0
Flags: W
HStem: -18 128<459.792 887.008> 1338 121<514.025 811.709>
VStem: 164 160<234.005 539.136> 289 147<993.663 1267.66> 866 149<1037.45 1286.5>
LayerCount: 2
UndoRedoHistory
Layer: 1
Undoes
EndUndoes
Redoes
EndRedoes
EndUndoRedoHistory
Fore
SplineSet
587 861 m 1xd8
 728 929 866 1033 866 1159 c 0
 866 1276 801 1338 672 1338 c 0
 547 1338 436 1272 436 1157 c 0
 436 1059 474 968 587 861 c 1xd8
673 110 m 0
 816 110 886 141 977 214 c 1
 540 702 l 1
 412 628 324 522 324 381 c 0xe8
 324 210 454 110 673 110 c 0
662 -18 m 0
 340 -18 164 131 164 372 c 0xe8
 164 582 301 704 457 796 c 1
 350 910 289 1019 289 1146 c 0xd8
 289 1334 448 1459 670 1459 c 0
 872 1459 1015 1353 1015 1156 c 0
 1015 988 858 860 666 770 c 1
 1078 310 l 1
 1133 367 1205 487 1240 568 c 1
 1354 493 l 1
 1317 408 1235 281 1167 211 c 1
 1334 40 l 1
 1192 -18 l 1
 1066 112 l 1
 940 18 865 -18 662 -18 c 0
EndSplineSet
EndChar
StartChar: quotesingle
Encoding: 39 39 316
Width: 341
VWidth: 0
Flags: W
HStem: 950 487<124 223>
VStem: 106 135<1049.13 1437> 124 99<950 1337.87>
LayerCount: 2
UndoRedoHistory
Layer: 1
Undoes
EndUndoes
Redoes
EndRedoes
EndUndoRedoHistory
Fore
SplineSet
124 950 m 1xa0
 106 1437 l 1
 241 1437 l 1xc0
 223 950 l 1
 124 950 l 1xa0
EndSplineSet
EndChar
StartChar: parenright
Encoding: 41 41 297
Width: 706
VWidth: 0
Flags: W
VStem: 366 162<286.569 1066.87>
LayerCount: 2
UndoRedoHistory
Layer: 1
Undoes
EndUndoes
Redoes
EndRedoes
EndUndoRedoHistory
Fore
SplineSet
114 -229 m 1
 287 34 366 371 366 695 c 0
 366 991 301 1247 113 1546 c 1
 270 1546 l 1
 438 1299 528 1014 528 693 c 0
 528 340 429 -9 269 -229 c 1
 114 -229 l 1
EndSplineSet
EndChar
StartChar: asterisk
Encoding: 42 42 158
Width: 1204
VWidth: 0
Flags: W
HStem: 1447 20G<518 685>
LayerCount: 2
UndoRedoHistory
Layer: 1
Undoes
EndUndoes
Redoes
EndRedoes
EndUndoRedoHistory
Fore
SplineSet
408 560 m 1
 272 646 l 1
 514 975 l 1
 157 1057 l 1
 201 1212 l 1
 553 1063 l 1
 518 1467 l 1
 685 1467 l 1
 648 1063 l 1
 1003 1212 l 1
 1047 1057 l 1
 684 975 l 1
 724 921 835 771 933 646 c 1
 873 608 857 598 797 560 c 1
 596 918 l 1
 408 560 l 1
EndSplineSet
EndChar
StartChar: plus
Encoding: 43 43 301
Width: 1103
VWidth: 0
GlyphClass: 2
Flags: W
HStem: 572 113<124 502 628 1001> 1058 20G<503 628>
VStem: 502 126<172 572 685 1078>
LayerCount: 2
UndoRedoHistory
Layer: 1
Undoes
EndUndoes
Redoes
EndRedoes
EndUndoRedoHistory
Fore
SplineSet
502 172 m 1
 502 572 l 1
 124 572 l 1
 124 685 l 1
 503 685 l 1
 503 1078 l 1
 628 1078 l 1
 628 685 l 1
 1001 685 l 1
 1001 572 l 1
 628 572 l 1
 628 172 l 1
 502 172 l 1
EndSplineSet
EndChar
StartChar: hyphen
Encoding: 45 45 234
Width: 718
VWidth: 0
GlyphClass: 2
Flags: W
HStem: 489 124<115 588>
VStem: 115 473<489 613>
LayerCount: 2
UndoRedoHistory
Layer: 1
Undoes
EndUndoes
Redoes
EndRedoes
EndUndoRedoHistory
Fore
SplineSet
115 489 m 1
 115 613 l 1
 588 613 l 1
 588 489 l 1
 115 489 l 1
EndSplineSet
EndChar
StartChar: period
Encoding: 46 46 300
Width: 488
VWidth: 0
Flags: W
HStem: -11 218<165.988 344.779>
VStem: 147 216<7.71066 188.289>
LayerCount: 2
UndoRedoHistory
Layer: 1
Undoes
EndUndoes
Redoes
EndRedoes
EndUndoRedoHistory
Fore
SplineSet
256 -11 m 0
 182 -11 147 44 147 98 c 0
 147 152 181 207 256 207 c 0
 330 207 363 152 363 98 c 0
 363 44 330 -11 256 -11 c 0
EndSplineSet
EndChar
StartChar: slash
Encoding: 47 47 335
Width: 962
VWidth: 0
Flags: W
LayerCount: 2
UndoRedoHistory
Layer: 1
Undoes
EndUndoes
Redoes
EndRedoes
EndUndoRedoHistory
Fore
SplineSet
100 -202 m 1
 768 1410 l 1
 890 1410 l 1
 218 -202 l 1
 100 -202 l 1
EndSplineSet
EndChar
StartChar: zero
Encoding: 48 48 579
Width: 1223
VWidth: 0
GlyphClass: 2
Flags: W
HStem: -29 135<480.623 763.519> 1321 135<483.215 771.088>
VStem: 133 165<366.74 1055.39> 944 165<360.405 1078.19>
LayerCount: 2
UndoRedoHistory
Layer: 1
Undoes
EndUndoes
Redoes
EndRedoes
EndUndoRedoHistory
Fore
SplineSet
626 -29 m 0
 283 -29 133 281 133 714 c 0
 133 1169 299 1456 626 1456 c 0
 953 1456 1109 1170 1109 714 c 0
 1109 281 969 -29 626 -29 c 0
626 106 m 0
 828 106 944 304 944 720 c 0
 944 1143 828 1321 626 1321 c 0
 424 1321 297 1115 298 719 c 1
 298 303 424 106 626 106 c 0
EndSplineSet
EndChar
StartChar: one
Encoding: 49 49 285
Width: 1201
VWidth: 0
GlyphClass: 2
Flags: W
HStem: 0 129<237 589 755 1069> 1184 132<268 425.691> 1420 20G<564 755>
VStem: 589 166<129 1288>
LayerCount: 2
UndoRedoHistory
Layer: 1
Undoes
EndUndoes
Redoes
EndRedoes
EndUndoRedoHistory
Fore
SplineSet
237 0 m 1
 237 129 l 1
 589 129 l 1
 589 1288 l 1
 500 1238 351 1195 268 1184 c 1
 268 1316 l 1
 351 1333 526 1387 602 1440 c 1
 755 1440 l 1
 755 129 l 1
 1069 129 l 1
 1069 0 l 1
 237 0 l 1
EndSplineSet
EndChar
StartChar: two
Encoding: 50 50 345
Width: 1201
VWidth: 0
GlyphClass: 2
Flags: W
HStem: 0 129<332 1012> 1319 140<323.639 737.56>
VStem: 852 163<869.273 1208.35>
LayerCount: 2
UndoRedoHistory
Layer: 1
Undoes
EndUndoes
Redoes
EndRedoes
EndUndoRedoHistory
Fore
SplineSet
162 0 m 1
 137 131 l 1
 653 677 l 2
 775 805 852 887 852 1051 c 0
 852 1272 677 1319 556 1319 c 0
 434 1319 303 1277 209 1219 c 1
 160 1343 l 1
 250 1405 409 1459 566 1459 c 0
 738 1459 1015 1372 1015 1067 c 0
 1015 863 945 766 759 572 c 2
 332 129 l 1
 1021 129 l 1
 1012 0 l 1
 162 0 l 1
EndSplineSet
EndChar
StartChar: three
Encoding: 51 51 341
Width: 1201
VWidth: 0
GlyphClass: 2
Flags: W
HStem: -21 135<326.854 773.055> 693 134<409 720.723> 1328 131<327.58 748.745>
VStem: 866 160<942.603 1224.55> 900 163<232.809 556.811>
CounterMasks: 1 e0
LayerCount: 2
UndoRedoHistory
Layer: 1
Undoes
EndUndoes
Redoes
EndRedoes
EndUndoRedoHistory
Fore
SplineSet
573 -21 m 0xe8
 392 -21 250 41 172 91 c 1
 227 206 l 1
 303 159 428 114 564 114 c 0
 766 114 900 199 900 390 c 0xe8
 900 645 701 688 452 693 c 1
 409 693 l 1
 409 827 l 1
 453 827 l 1
 657 834 866 866 866 1087 c 0
 866 1246 734 1328 563 1328 c 0
 442 1328 314 1290 218 1230 c 1
 165 1349 l 1
 281 1421 417 1459 569 1459 c 0
 819 1459 1026 1328 1026 1098 c 0xf0
 1026 905 923 806 755 764 c 1
 937 727 1063 600 1063 390 c 0
 1063 131 868 -21 573 -21 c 0xe8
EndSplineSet
EndChar
StartChar: four
Encoding: 52 52 215
Width: 1201
VWidth: 0
GlyphClass: 2
Flags: W
HStem: 0 21G<779 937> 368 128<280 779 937 1104> 1420 20G<753.927 937>
VStem: 779 158<0 368 496 1234>
LayerCount: 2
UndoRedoHistory
Layer: 1
Undoes
EndUndoes
Redoes
EndRedoes
EndUndoRedoHistory
Fore
SplineSet
280 496 m 1
 779 496 l 1
 779 1234 l 1
 280 496 l 1
779 0 m 1
 779 368 l 1
 115 368 l 1
 115 512 l 1
 768 1440 l 1
 937 1440 l 1
 937 496 l 1
 1116 496 l 1
 1104 368 l 1
 937 368 l 1
 937 0 l 1
 779 0 l 1
EndSplineSet
EndChar
StartChar: five
Encoding: 53 53 216
Width: 1203
VWidth: 0
Flags: W
HStem: -20 133<336.894 734.93> 778 131<437.823 783.448> 1328 132<407 1003>
VStem: 909 169<281.421 647.215>
CounterMasks: 1 e0
LayerCount: 2
UndoRedoHistory
Layer: 1
Undoes
EndUndoes
Redoes
EndRedoes
EndUndoRedoHistory
Fore
SplineSet
564 -20 m 0
 406 -20 250 41 157 99 c 1
 213 218 l 1
 295 167 423 113 548 113 c 0
 756 113 909 240 909 461 c 0
 909 632 824 778 614 778 c 0
 516 778 416 737 354 671 c 1
 220 687 l 1
 266 1460 l 1
 1016 1460 l 1
 1003 1328 l 1
 407 1328 l 1
 373 830 l 1
 447 880 530 909 640 909 c 0
 922 909 1078 706 1078 464 c 0
 1078 154 853 -20 564 -20 c 0
EndSplineSet
EndChar
StartChar: six
Encoding: 54 54 332
Width: 1201
VWidth: 0
GlyphClass: 2
Flags: W
HStem: -19 130<455.942 788.092> 730 129<470.875 800.149> 1420 20G<691.118 894>
VStem: 157 159<250.464 593.62> 933 161<261.321 595.194>
LayerCount: 2
UndoRedoHistory
Layer: 1
Undoes
EndUndoes
Redoes
EndRedoes
EndUndoRedoHistory
Fore
SplineSet
621 111 m 0
 824 111 933 258 933 428 c 0
 933 604 823 730 627 730 c 0
 497 730 316 659 316 422 c 0
 316 254 418 111 621 111 c 0
625 -19 m 0
 323 -19 157 194 157 432 c 0
 157 645 245 777 376 966 c 2
 705 1440 l 1
 894 1440 l 1
 554 950 l 2
 524 906 486 853 449 803 c 1
 504 835 573 859 656 859 c 0
 888 859 1094 688 1094 429 c 0
 1094 178 912 -19 625 -19 c 0
EndSplineSet
EndChar
StartChar: seven
Encoding: 55 55 331
Width: 1201
VWidth: 0
GlyphClass: 2
Flags: W
HStem: 1 21G<360 533.752> 1306 134<209 864>
LayerCount: 2
UndoRedoHistory
Layer: 1
Undoes
EndUndoes
Redoes
EndRedoes
EndUndoRedoHistory
Fore
SplineSet
360 1 m 1
 864 1306 l 1
 209 1306 l 1
 190 1440 l 1
 1038 1440 l 1
 1038 1322 l 1
 526 1 l 1
 360 1 l 1
EndSplineSet
EndChar
StartChar: eight
Encoding: 56 56 204
Width: 1203
VWidth: 0
Flags: W
HStem: -19 127<407.183 803.133> 1357 123<427.154 772.376>
VStem: 130 155<224.304 533.617> 161 160<960.859 1255.25> 881 160<961.871 1255.25> 916 157<215.707 534.009>
LayerCount: 2
UndoRedoHistory
Layer: 1
Undoes
EndUndoes
Redoes
EndRedoes
EndUndoRedoHistory
Fore
SplineSet
602 817 m 1xd8
 789 858 881 965 881 1121 c 0
 881 1263 771 1357 602 1357 c 0
 434 1357 321 1263 321 1121 c 0
 321 965 417 858 602 817 c 1xd8
602 108 m 0
 815 108 916 202 916 380 c 0
 916 548 783 661 602 700 c 1
 422 661 285 554 285 379 c 0xe4
 285 208 395 108 602 108 c 0
602 -19 m 0
 346 -19 130 111 130 364 c 0xe4
 130 564 244 697 436 763 c 1
 281 814 161 940 161 1117 c 0
 161 1344 347 1480 603 1480 c 0
 859 1480 1041 1344 1041 1117 c 0xd8
 1041 940 931 823 771 765 c 1
 954 706 1073 550 1073 364 c 0
 1073 111 860 -19 602 -19 c 0
EndSplineSet
EndChar
StartChar: nine
Encoding: 57 57 270
Width: 1201
VWidth: 0
GlyphClass: 2
Flags: W
HStem: 0 21G<303 513.937> 580 129<443.988 773.949> 1328 131<457.228 789.558>
VStem: 150 162<840.697 1178.31> 930 158<845.657 1188.96>
LayerCount: 2
UndoRedoHistory
Layer: 1
Undoes
EndUndoes
Redoes
EndRedoes
EndUndoRedoHistory
Fore
SplineSet
617 709 m 0
 747 709 930 780 930 1018 c 0
 930 1186 828 1328 625 1328 c 0
 422 1328 312 1182 312 1012 c 0
 312 835 421 709 617 709 c 0
303 0 m 1
 682 498 l 2
 712 537 749 584 785 630 c 1
 731 601 665 580 588 580 c 0
 356 580 150 750 150 1010 c 0
 150 1262 333 1459 620 1459 c 0
 922 1459 1088 1245 1088 1007 c 0
 1088 795 990 660 856 478 c 0
 849 469 499 0 499 0 c 1
 303 0 l 1
EndSplineSet
EndChar
StartChar: colon
Encoding: 58 58 181
Width: 536
VWidth: 0
Flags: W
HStem: 0 204<178 359> 854 205<178 359>
VStem: 178 181<0 204 854 1059>
LayerCount: 2
UndoRedoHistory
Layer: 1
Undoes
EndUndoes
Redoes
EndRedoes
EndUndoRedoHistory
Fore
SplineSet
178 854 m 1
 178 1059 l 1
 359 1059 l 1
 359 854 l 1
 178 854 l 1
178 0 m 1
 178 204 l 1
 359 204 l 1
 359 0 l 1
 178 0 l 1
EndSplineSet
EndChar
StartChar: semicolon
Encoding: 59 59 332
Width: 526
VWidth: 0
Flags: W
HStem: 854 205<183 364>
VStem: 183 181<854 1059>
LayerCount: 2
UndoRedoHistory
Layer: 1
Undoes
EndUndoes
Redoes
EndRedoes
EndUndoRedoHistory
Fore
SplineSet
152 -300 m 1
 206 178 l 1
 368 178 l 1
 247 -300 l 1
 152 -300 l 1
183 854 m 1
 183 1059 l 1
 364 1059 l 1
 364 854 l 1
 183 854 l 1
EndSplineSet
EndChar
StartChar: less
Encoding: 60 60 256
Width: 1177
VWidth: 0
GlyphClass: 2
Flags: W
LayerCount: 2
UndoRedoHistory
Layer: 1
Undoes
EndUndoes
Redoes
EndRedoes
EndUndoRedoHistory
Fore
SplineSet
1037 135 m 1
 110 580 l 1
 110 667 l 1
 1040 1144 l 1
 1040 1004 l 1
 275 628 l 1
 1038 276 l 1
 1037 135 l 1
EndSplineSet
EndChar
StartChar: equal
Encoding: 61 61 211
Width: 1205
VWidth: 0
Flags: W
HStem: 489 124<274 931> 774 124<274 931>
VStem: 274 657<489 613 774 898>
LayerCount: 2
UndoRedoHistory
Layer: 1
Undoes
EndUndoes
Redoes
EndRedoes
EndUndoRedoHistory
Fore
SplineSet
274 489 m 1
 274 613 l 1
 931 613 l 1
 931 489 l 1
 274 489 l 1
274 774 m 1
 274 898 l 1
 931 898 l 1
 931 774 l 1
 274 774 l 1
EndSplineSet
EndChar
StartChar: greater
Encoding: 62 62 226
Width: 1203
VWidth: 0
Flags: W
LayerCount: 2
UndoRedoHistory
Layer: 1
Undoes
EndUndoes
Redoes
EndRedoes
EndUndoRedoHistory
Fore
SplineSet
161 141 m 1
 161 282 l 1
 898 628 l 1
 163 1010 l 1
 163 1150 l 1
 1091 666 l 1
 1091 578 l 1
 161 141 l 1
EndSplineSet
EndChar
StartChar: question
Encoding: 63 63 305
Width: 929
VWidth: 0
GlyphClass: 2
Flags: W
HStem: -13 229<314.258 501.149> 1349 131<246.889 579.701>
VStem: 293 229<8.62109 194.695> 644 146<975.775 1287.87>
LayerCount: 2
UndoRedoHistory
Layer: 1
Undoes
EndUndoes
Redoes
EndRedoes
EndUndoRedoHistory
Fore
SplineSet
408 -13 m 0
 329 -13 293 46 293 102 c 0
 293 158 329 216 408 216 c 0
 487 216 522 158 522 102 c 0
 522 44 487 -13 408 -13 c 0
442 413 m 1
 366 413 l 1
 376 660 644 925 644 1153 c 0
 644 1286 563 1349 431 1349 c 0
 317 1349 215 1292 170 1264 c 1
 134 1387 l 1
 213 1441 317 1480 450 1480 c 0
 631 1480 790 1368 790 1171 c 0
 790 901 559 752 442 413 c 1
EndSplineSet
EndChar
StartChar: at
Encoding: 64 64 159
Width: 1980
VWidth: 0
GlyphClass: 2
Flags: W
HStem: -195 110<711.985 1264.12> 219 104<801.763 1035.01 1385.25 1546.4> 979 100<909.255 1203.78> 1368 113<778.667 1290.63>
VStem: 165 131<331.983 874.654> 603 133<388.628 780.597> 1693 120<509.795 985.592>
CounterMasks: 2 f0 0e
LayerCount: 2
UndoRedoHistory
Layer: 1
Undoes
EndUndoes
Redoes
EndRedoes
EndUndoRedoHistory
Fore
SplineSet
918 323 m 0
 1074 323 1136 492 1165 694 c 0
 1169 726 1193 869 1207 958 c 1
 1154 969 1087 979 1052 979 c 0
 856 979 736 781 736 574 c 0
 736 402 803 323 918 323 c 0
968 -195 m 0
 485 -195 165 106 165 609 c 0
 165 1111 529 1481 1037 1481 c 0
 1474 1481 1813 1201 1813 750 c 0
 1813 406 1609 229 1434 229 c 1
 1367 291 1223 302 1194 450 c 1
 1138 326 1042 219 903 219 c 0
 711 219 603 360 603 574 c 0
 603 840 763 1079 1049 1079 c 0
 1148 1079 1271 1051 1359 1015 c 1
 1330 809 1292 620 1292 494 c 0
 1292 400 1340 324 1432 324 c 0
 1579 324 1693 502 1693 758 c 0
 1693 1106 1439 1368 1033 1368 c 0
 598 1368 296 1038 296 608 c 0
 296 181 563 -85 972 -85 c 0
 1141 -85 1305 -42 1441 36 c 1
 1482 -61 l 1
 1350 -150 1164 -195 968 -195 c 0
EndSplineSet
EndChar
StartChar: A
Encoding: 65 65 1
Width: 1360
VWidth: 0
Flags: W
HStem: 0 21G<52 239.269 1126.69 1308> 470 122<443.779 922.051> 1440 20G<579.671 781.315>
LayerCount: 2
UndoRedoHistory
Layer: 1
Undoes
EndUndoes
Redoes
EndRedoes
EndUndoRedoHistory
Fore
SplineSet
52 0 m 1
 587 1460 l 1
 774 1460 l 1
 1308 0 l 1
 1134 0 l 1
 962.181818182 470 l 1
 402.826923077 470 l 1
 232 0 l 1
 52 0 l 1
922.051407589 592 m 1
 681.783043521 1288.09664342 l 1
 443.779411765 592 l 1
 922.051407589 592 l 1
EndSplineSet
EndChar
StartChar: B
Encoding: 66 66 13
Width: 1332
VWidth: 0
Flags: W
HStem: 0 134<340 909.525> 705 125<340 889.554> 1328 132<340 885.265>
VStem: 164 176<134 705 830 1328> 992 168<923.115 1235.11> 1042 176<248.697 583.107>
LayerCount: 2
UndoRedoHistory
Layer: 1
Undoes
EndUndoes
Redoes
EndRedoes
EndUndoRedoHistory
Fore
SplineSet
164 0 m 1xf4
 164 1460 l 1
 622 1460 l 2
 988 1460 1160 1347 1160 1102 c 1xf8
 1160 951.964259414 1105.97548107 839.213045793 927.569865477 771.711254946 c 1
 1108.50297664 719.369970078 1218 602.309851473 1218 412 c 0
 1218 163 1055 0 708 0 c 2
 164 0 l 1xf4
340 1328 m 1
 340 830 l 1
 678 830 l 2
 868 830 992 883 992 1081 c 0
 992 1276 873 1328 621 1328 c 2
 340 1328 l 1
340 705 m 1
 340 134 l 1
 680 134 l 2
 932 134 1042 218 1042 416 c 0xf4
 1042 629 908 705 626 705 c 2
 340 705 l 1
EndSplineSet
EndChar
StartChar: C
Encoding: 67 67 14
Width: 1292
VWidth: 0
GlyphClass: 2
Flags: W
HStem: -19 140<612.832 1079.54> 1320 139<602.487 1060.61>
VStem: 120 177<463.342 990.665>
LayerCount: 2
UndoRedoHistory
Layer: 1
Undoes
EndUndoes
Redoes
EndRedoes
EndUndoRedoHistory
Fore
SplineSet
815 -19 m 0
 409 -19 120 264 120 725 c 0
 120 1164 390 1459 806 1459 c 0
 976 1459 1117 1413 1209 1347 c 1
 1151 1232 l 1
 1063 1287 940 1320 821 1320 c 0
 491 1320 297 1076 297 719 c 0
 297 358 499 121 834 121 c 0
 992 121 1110 175 1159 198 c 1
 1200 67 l 1
 1147 40 1009 -19 815 -19 c 0
EndSplineSet
EndChar
StartChar: D
Encoding: 68 68 21
Width: 1474
VWidth: 0
GlyphClass: 2
Flags: W
HStem: 0 134<334 860.359> 1308 132<334 851.944>
VStem: 158 176<134 1308> 1178 176<447.875 992.005>
LayerCount: 2
UndoRedoHistory
Layer: 1
Undoes
EndUndoes
Redoes
EndRedoes
EndUndoRedoHistory
Fore
SplineSet
158 0 m 1
 158 1440 l 1
 572 1440 l 2
 1035 1440 1354 1224 1354 724 c 0
 1354 249 1063 0 601 0 c 2
 158 0 l 1
334 1308 m 1
 334 134 l 1
 591 134 l 2
 982 134 1178 332 1178 719 c 0
 1178 1143 953 1308 564 1308 c 2
 334 1308 l 1
EndSplineSet
EndChar
StartChar: E
Encoding: 69 69 25
Width: 1133
VWidth: 0
Flags: W
HStem: 0 134<340 1038> 689 132<340 978> 1328 132<340 1040>
VStem: 164 176<134 689 821 1328>
LayerCount: 2
UndoRedoHistory
Layer: 1
Undoes
EndUndoes
Redoes
EndRedoes
EndUndoRedoHistory
Fore
SplineSet
164 0 m 1
 164 1460 l 1
 1046 1460 l 1
 1040 1328 l 1
 340 1328 l 1
 340 821 l 1
 978 821 l 1
 978 689 l 1
 340 689 l 1
 340 134 l 1
 1050 134 l 1
 1038 0 l 1
 164 0 l 1
EndSplineSet
EndChar
StartChar: F
Encoding: 70 70 39
Width: 1056
VWidth: 0
GlyphClass: 2
Flags: W
HStem: 0 21G<158 337> 659 128<337 929> 1305 135<337 973>
VStem: 158 179<0 659 787 1305>
LayerCount: 2
UndoRedoHistory
Layer: 1
Undoes
EndUndoes
Redoes
EndRedoes
EndUndoRedoHistory
Fore
SplineSet
158 0 m 1
 158 1440 l 1
 983 1440 l 1
 973 1305 l 1
 337 1305 l 1
 337 787 l 1
 929 787 l 1
 929 659 l 1
 337 659 l 1
 337 0 l 1
 158 0 l 1
EndSplineSet
EndChar
StartChar: G
Encoding: 71 71 40
Width: 1443
VWidth: 0
GlyphClass: 2
Flags: W
HStem: -19 140<591.801 1139.33> 595 140<823 1141> 1321 138<622.739 1096.81>
VStem: 120 177<437.424 976.411> 1141 163<152.234 595>
LayerCount: 2
UndoRedoHistory
Layer: 1
Undoes
EndUndoes
Redoes
EndRedoes
EndUndoRedoHistory
Fore
SplineSet
806 -19 m 0
 357 -19 120 295 120 718 c 0
 120 1147 396 1459 835 1459 c 0
 1003 1459 1147 1428 1265 1346 c 1
 1222 1214 l 1
 1148 1255 1050 1321 838 1321 c 0
 496 1321 297 1064 297 719 c 0
 297 359 452 121 837 121 c 1
 968 121 1073 143 1141 164 c 1
 1141 595 l 1
 816 595 l 1
 823 735 l 1
 1304 735 l 1
 1304 71 l 1
 1157 14 1002 -19 806 -19 c 0
EndSplineSet
EndChar
StartChar: H
Encoding: 72 72 47
Width: 1428
VWidth: 0
GlyphClass: 2
Flags: W
HStem: 0 21G<158 334 1094 1270> 676 128<334 1094> 1420 20G<158 334 1094 1270>
VStem: 158 176<0 676 804 1440> 1094 176<0 676 804 1440>
LayerCount: 2
UndoRedoHistory
Layer: 1
Undoes
EndUndoes
Redoes
EndRedoes
EndUndoRedoHistory
Fore
SplineSet
158 0 m 1
 158 1440 l 1
 334 1440 l 1
 334 804 l 1
 1094 804 l 1
 1094 1440 l 1
 1270 1440 l 1
 1270 0 l 1
 1094 0 l 1
 1094 676 l 1
 334 676 l 1
 334 0 l 1
 158 0 l 1
EndSplineSet
EndChar
StartChar: I
Encoding: 73 73 50
Width: 818
VWidth: 0
Flags: W
HStem: 0 107<114 322 498 704> 1353 107<114 322 498 704>
VStem: 322 176<107 1353>
LayerCount: 2
UndoRedoHistory
Layer: 1
Undoes
EndUndoes
Redoes
EndRedoes
EndUndoRedoHistory
Fore
SplineSet
114 1460 m 1
 704 1460 l 1
 704 1353 l 1
 498 1353 l 1
 498 107 l 1
 704 107 l 1
 704 0 l 1
 114 0 l 1
 114 107 l 1
 322 107 l 1
 322 1353 l 1
 114 1353 l 1
 114 1460 l 1
EndSplineSet
EndChar
StartChar: J
Encoding: 74 74 61
Width: 713
VWidth: 0
Flags: W
HStem: -168 142<-1 269.858> 1440 20G<370 547>
VStem: 370 177<75.7714 1460>
LayerCount: 2
UndoRedoHistory
Layer: 1
Undoes
EndUndoes
Redoes
EndRedoes
EndUndoRedoHistory
Fore
SplineSet
112 -168 m 2
 -1 -168 l 1
 -1 -26 l 1
 100 -26 l 2
 303 -26 370 78 370 271 c 2
 370 1460 l 1
 547 1460 l 1
 547 296 l 2
 547 -4 429 -168 112 -168 c 2
EndSplineSet
EndChar
StartChar: K
Encoding: 75 75 63
Width: 1250
VWidth: 0
GlyphClass: 2
Flags: W
HStem: 0 21G<158 334 1002.42 1224> 1420 20G<158 334 969.016 1194>
VStem: 158 176<0 591 751 1440>
LayerCount: 2
UndoRedoHistory
Layer: 1
Undoes
EndUndoes
Redoes
EndRedoes
EndUndoRedoHistory
Fore
SplineSet
158 0 m 1
 158 1440 l 1
 334 1440 l 1
 334 751 l 1
 988 1440 l 1
 1194 1440 l 1
 596 801 l 1
 1224 0 l 1
 1018 0 l 1
 464 711 l 1
 334 591 l 1
 334 0 l 1
 158 0 l 1
EndSplineSet
EndChar
StartChar: L
Encoding: 76 76 65
Width: 1060
VWidth: 0
GlyphClass: 2
Flags: W
HStem: 0 134<334 1004> 1420 20G<158 334>
VStem: 158 176<134 1440>
LayerCount: 2
UndoRedoHistory
Layer: 1
Undoes
EndUndoes
Redoes
EndRedoes
EndUndoRedoHistory
Fore
SplineSet
158 0 m 1
 158 1440 l 1
 334 1440 l 1
 334 134 l 1
 1008 134 l 1
 1004 0 l 1
 158 0 l 1
EndSplineSet
EndChar
StartChar: M
Encoding: 77 77 71
Width: 1732
VWidth: 0
GlyphClass: 2
Flags: W
HStem: 0 21G<150 316.311 1417.69 1582> 1420 20G<178.597 403.679 1334.28 1553.4>
VStem: 150 166<0 711.857> 179 151<728.143 1228> 1404 149<728.143 1215> 1418 164<0 711.857>
LayerCount: 2
UndoRedoHistory
Layer: 1
Undoes
EndUndoes
Redoes
EndRedoes
EndUndoRedoHistory
Fore
SplineSet
150 0 m 1xe0
 179 1440 l 1
 395 1440 l 1
 868 350 l 1
 1343 1440 l 1
 1553 1440 l 1xd8
 1582 0 l 1
 1418 0 l 1xc4
 1404 905 l 1
 1404 1215 l 1
 941 163 l 1
 790 163 l 1
 330 1228 l 1
 330 901 l 1xd8
 316 0 l 1
 150 0 l 1xe0
EndSplineSet
EndChar
StartChar: N
Encoding: 78 78 73
Width: 1488
VWidth: 0
Flags: W
HStem: 0 21G<164 327 1129.55 1324> 1440 20G<164 351.41 1162 1324>
VStem: 164 163<0 1232.16> 164 148.583<783.549 1234.71> 1162 162<217.043 1460>
LayerCount: 2
UndoRedoHistory
Layer: 1
Undoes
EndUndoes
Redoes
EndRedoes
EndUndoRedoHistory
Fore
SplineSet
164 0 m 1xe8
 164 1460 l 1
 338 1460 l 1
 1171.37869358 217.042699331 l 1
 1162 628 l 1
 1162 1460 l 1
 1324 1460 l 1
 1324 0 l 1
 1143 0 l 1
 312.583000753 1234.71144688 l 1xd8
 327 781 l 1
 327 0 l 1
 164 0 l 1xe8
EndSplineSet
EndChar
StartChar: O
Encoding: 79 79 78
Width: 1616
VWidth: 0
GlyphClass: 2
Flags: W
HStem: -19 139<581.293 1037.42> 1320 139<586.371 1034.41>
VStem: 120 177<439.521 985.427> 1320 176<431.744 999.347>
LayerCount: 2
UndoRedoHistory
Layer: 1
Undoes
EndUndoes
Redoes
EndRedoes
EndUndoRedoHistory
Fore
SplineSet
811 -19 m 0
 364 -19 120 271 120 712 c 0
 120 1164 374 1459 812 1459 c 0
 1241 1459 1496 1161 1496 710 c 0
 1496 277 1253 -19 811 -19 c 0
809 120 m 0
 1159 120 1320 365 1320 711 c 0
 1320 1071 1152 1320 811 1320 c 0
 471 1320 297 1073 297 711 c 0
 297 365 459 120 809 120 c 0
EndSplineSet
EndChar
StartChar: P
Encoding: 80 80 92
Width: 1188
VWidth: 0
GlyphClass: 2
Flags: W
HStem: 0 21G<158 334> 686 135<334 855.078> 1308 132<334 851.333>
VStem: 158 176<0 686 821 1308> 947 176<904.45 1223.89>
LayerCount: 2
UndoRedoHistory
Layer: 1
Undoes
EndUndoes
Redoes
EndRedoes
EndUndoRedoHistory
Fore
SplineSet
158 0 m 1
 158 1440 l 1
 653 1440 l 2
 924 1440 1123 1347 1123 1083 c 0
 1123 829 988 686 650 686 c 2
 334 686 l 1
 334 0 l 1
 158 0 l 1
334 1308 m 1
 334 821 l 1
 646 821 l 2
 863 821 947 888 947 1081 c 0
 947 1254 832 1308 652 1308 c 2
 334 1308 l 1
EndSplineSet
EndChar
StartChar: Q
Encoding: 81 81 95
Width: 1616
VWidth: 0
GlyphClass: 2
Flags: W
HStem: -401 21G<1224 1282.86> -19 139<581.293 1037.42> 1320 139<586.371 1034.41>
VStem: 120 177<439.521 985.427> 1320 176<431.744 999.347>
LayerCount: 2
UndoRedoHistory
Layer: 1
Undoes
EndUndoes
Redoes
EndRedoes
EndUndoRedoHistory
Fore
SplineSet
1260 -401 m 1
 1188 -333 1030 -127 940 51 c 1
 1088 79 l 1
 1140 -28 1278 -206 1372 -303 c 1
 1260 -401 l 1
EndSplineSet
Refer: 78 79 N 1 0 0 1 0 0 2
EndChar
StartChar: R
Encoding: 82 82 96
Width: 1333
VWidth: 0
Flags: W
HStem: 0 21G<164 340 1068.48 1259> 704 128<340 781.808> 1328 132<340 938.728>
VStem: 164 176<0 704 832 1328> 1028 172<907.202 1247.45>
LayerCount: 2
UndoRedoHistory
Layer: 1
Undoes
EndUndoes
Redoes
EndRedoes
EndUndoRedoHistory
Fore
SplineSet
164 0 m 1
 164 1460 l 1
 751 1460 l 2
 1055 1460 1200 1345 1200 1089 c 0
 1200 879.338918152 1107.05147079 774.675248933 945.106832702 728.700979682 c 1
 1030 512 l 1
 1259 0 l 1
 1077 0 l 1
 882 458 l 1
 781.80794702 704 l 1
 340 704 l 1
 340 0 l 1
 164 0 l 1
340 1328 m 1
 340 832 l 1
 724 832 l 2
 976 832 1028 902 1028 1086 c 0
 1028 1241 966 1328 754 1328 c 2
 340 1328 l 1
EndSplineSet
EndChar
StartChar: S
Encoding: 83 83 100
Width: 1167
VWidth: 0
GlyphClass: 2
Flags: W
HStem: -19 139<336.547 793.725> 1320 139<405.124 843.437>
VStem: 138 162<956.727 1226.6> 907 161<223.951 529.126>
LayerCount: 2
UndoRedoHistory
Layer: 1
Undoes
EndUndoes
Redoes
EndRedoes
EndUndoRedoHistory
Fore
SplineSet
578 -19 m 0
 330 -19 194 69 122 121 c 1
 182 249 l 1
 274 182 403 120 584 120 c 0
 787 120 900 189 907 373 c 0
 907 379 907 384 907 389 c 0
 907 520 847 577 671 642 c 1
 433 733 l 2
 251 802 138 886 138 1085 c 0
 138 1365 373 1459 617 1459 c 0
 781 1459 934 1407 1017 1347 c 1
 952 1226 l 1
 903 1253 775 1320 612 1320 c 0
 454 1320 300 1269 300 1097 c 0
 300 973 346 931 484 877 c 2
 714 787 l 1
 917 709 1068 630 1068 399 c 0
 1068 392 1068 385 1068 377 c 0
 1057 91 852 -19 578 -19 c 0
EndSplineSet
EndChar
StartChar: T
Encoding: 84 84 107
Width: 1115
VWidth: 0
Flags: W
HStem: 0 21G<467 644> 1326 134<34 467 644 1081>
VStem: 467 177<0 1326>
LayerCount: 2
UndoRedoHistory
Layer: 1
Undoes
EndUndoes
Redoes
EndRedoes
EndUndoRedoHistory
Fore
SplineSet
467 0 m 1
 467 1326 l 1
 34 1326 l 1
 34 1460 l 1
 1081 1460 l 1
 1081 1326 l 1
 644 1326 l 1
 644 0 l 1
 467 0 l 1
EndSplineSet
EndChar
StartChar: U
Encoding: 85 85 112
Width: 1412
VWidth: 0
GlyphClass: 2
Flags: W
HStem: -19 140<494.136 915.096> 1420 20G<134 310 1102 1278>
VStem: 134 176<306.688 1440> 1102 176<309.198 1440>
LayerCount: 2
UndoRedoHistory
Layer: 1
Undoes
EndUndoes
Redoes
EndRedoes
EndUndoRedoHistory
Fore
SplineSet
706 -19 m 0
 318 -19 134 205 134 529 c 2
 134 1440 l 1
 310 1440 l 1
 310 532 l 2
 310 264 434 121 706 121 c 0
 969 121 1102 264 1102 532 c 2
 1102 1440 l 1
 1278 1440 l 1
 1278 526 l 2
 1278 211 1090 -19 706 -19 c 0
EndSplineSet
EndChar
StartChar: V
Encoding: 86 86 125
Width: 1352
VWidth: 0
Flags: W
HStem: 0 21G<591.616 760.384> 1440 20G<60 248.93 1104.06 1292>
LayerCount: 2
UndoRedoHistory
Layer: 1
Undoes
EndUndoes
Redoes
EndRedoes
EndUndoRedoHistory
Fore
SplineSet
599 0 m 1
 60 1460 l 1
 242 1460 l 1
 567 522 l 1
 676.843434343 215.061608998 l 1
 787 526 l 1
 1111 1460 l 1
 1292 1460 l 1
 753 0 l 1
 599 0 l 1
EndSplineSet
EndChar
StartChar: W
Encoding: 87 87 126
Width: 2049
VWidth: 0
GlyphClass: 2
Flags: W
HStem: 0 21G<482.903 662.183 1382.97 1566.1> 1420 20G<50 222.895 1823.15 1999>
LayerCount: 2
UndoRedoHistory
Layer: 1
Undoes
EndUndoes
Redoes
EndRedoes
EndUndoRedoHistory
Fore
SplineSet
489 0 m 1
 50 1440 l 1
 217 1440 l 1
 576 222 l 1
 940 1409 l 1
 1110 1409 l 1
 1473 223 l 1
 1829 1440 l 1
 1999 1440 l 1
 1560 0 l 1
 1389 0 l 1
 1027 1200 l 1
 656 0 l 1
 489 0 l 1
EndSplineSet
EndChar
StartChar: X
Encoding: 88 88 131
Width: 1275
VWidth: 0
Flags: W
HStem: 0 21G<71 269.655 992.247 1204> 1440 20G<74 287.726 996.792 1197>
LayerCount: 2
UndoRedoHistory
Layer: 1
Undoes
EndUndoes
Redoes
EndRedoes
EndUndoRedoHistory
Fore
SplineSet
1005 0 m 1
 629.551353029 588.780907173 l 1
 257 0 l 1
 71 0 l 1
 538.053093947 732.269047086 l 1
 74 1460 l 1
 275 1460 l 1
 649.62788524 871.24142901 l 1
 1009 1460 l 1
 1197 1460 l 1
 738.10309397 732.195352857 l 1
 1204 0 l 1
 1005 0 l 1
EndSplineSet
EndChar
StartChar: Y
Encoding: 89 89 132
Width: 1234
VWidth: 0
Flags: W
HStem: 0 21G<545 715> 1440 20G<50 235.414 999.267 1184>
VStem: 545 170<0 602.606>
LayerCount: 2
UndoRedoHistory
Layer: 1
Undoes
EndUndoes
Redoes
EndRedoes
EndUndoRedoHistory
Fore
SplineSet
545 0 m 1
 545 602.605504587 l 1
 50 1460 l 1
 224 1460 l 1
 629.078014184 750.184397163 l 1
 1010 1460 l 1
 1184 1460 l 1
 715 605.194931774 l 1
 715 0 l 1
 545 0 l 1
EndSplineSet
EndChar
StartChar: Z
Encoding: 90 90 137
Width: 1224
VWidth: 0
GlyphClass: 2
Flags: W
HStem: 0 134<349 1097> 1308 132<182 901>
LayerCount: 2
UndoRedoHistory
Layer: 1
Undoes
EndUndoes
Redoes
EndRedoes
EndUndoRedoHistory
Fore
SplineSet
149 0 m 1
 149 124 l 1
 901 1308 l 1
 182 1308 l 1
 182 1440 l 1
 1091 1440 l 1
 1098 1319 l 1
 349 134 l 1
 1105 134 l 1
 1097 0 l 1
 149 0 l 1
EndSplineSet
EndChar
StartChar: bracketleft
Encoding: 91 91 166
Width: 674
VWidth: 0
Flags: W
HStem: -255 117<338 626> 1342 118<338 626>
VStem: 191 147<-138 1342>
LayerCount: 2
UndoRedoHistory
Layer: 1
Undoes
EndUndoes
Redoes
EndRedoes
EndUndoRedoHistory
Fore
SplineSet
191 -255 m 1
 191 1460 l 1
 626 1460 l 1
 626 1342 l 1
 338 1342 l 1
 338 -138 l 1
 626 -138 l 1
 626 -255 l 1
 191 -255 l 1
EndSplineSet
EndChar
StartChar: backslash
Encoding: 92 92 162
Width: 924
VWidth: 0
GlyphClass: 2
Flags: W
VStem: 126 674
LayerCount: 2
UndoRedoHistory
Layer: 1
Undoes
EndUndoes
Redoes
EndRedoes
EndUndoRedoHistory
Fore
SplineSet
670 -42 m 1
 126 1435 l 1
 257 1435 l 1
 800 -42 l 1
 670 -42 l 1
EndSplineSet
EndChar
StartChar: bracketright
Encoding: 93 93 167
Width: 676
VWidth: 0
Flags: W
HStem: -255 117<66 354> 1342 118<66 354>
VStem: 354 146<-138 1342>
LayerCount: 2
UndoRedoHistory
Layer: 1
Undoes
EndUndoes
Redoes
EndRedoes
EndUndoRedoHistory
Fore
SplineSet
66 -255 m 1
 66 -138 l 1
 354 -138 l 1
 354 1342 l 1
 66 1342 l 1
 66 1460 l 1
 500 1460 l 1
 500 -255 l 1
 66 -255 l 1
EndSplineSet
EndChar
StartChar: asciicircum
Encoding: 94 94 156
Width: 1253
VWidth: 0
GlyphClass: 2
Flags: W
HStem: 1454 20G<568.458 679.078>
LayerCount: 2
UndoRedoHistory
Layer: 1
Undoes
EndUndoes
Redoes
EndRedoes
EndUndoRedoHistory
Fore
SplineSet
151 579 m 1
 578 1474 l 1
 669 1474 l 1
 1120 579 l 1
 992 579 l 1
 625 1317 l 1
 276 579 l 1
 151 579 l 1
EndSplineSet
EndChar
StartChar: underscore
Encoding: 95 95 358
Width: 1057
VWidth: 0
Flags: W
HStem: -260 119<84 980>
LayerCount: 2
UndoRedoHistory
Layer: 1
Undoes
EndUndoes
Redoes
EndRedoes
EndUndoRedoHistory
Fore
SplineSet
84 -260 m 1
 84 -141 l 1
 980 -141 l 1
 980 -260 l 1
 84 -260 l 1
EndSplineSet
EndChar
StartChar: grave
Encoding: 96 96 225
Width: 650
VWidth: 0
Flags: W
HStem: 1087 374
VStem: 144 364
LayerCount: 2
UndoRedoHistory
Layer: 1
Undoes
EndUndoes
Redoes
EndRedoes
EndUndoRedoHistory
Fore
SplineSet
414 1087 m 1
 144 1461 l 1
 332 1461 l 1
 508 1087 l 1
 414 1087 l 1
EndSplineSet
EndChar
StartChar: a
Encoding: 97 97 141
Width: 1041
VWidth: 0
GlyphClass: 2
Flags: W
HStem: -20 122<293.387 601.03> 1 21G<792.027 915> 513 108<352.688 611> 956 124<259.437 675.774>
VStem: 81 158<157.92 423.153> 751 164<226.14 524 634 877.5> 795 120<1 97.4422>
LayerCount: 2
UndoRedoHistory
Layer: 1
Undoes
EndUndoes
Redoes
EndRedoes
EndUndoRedoHistory
Fore
SplineSet
414 102 m 0xbc
 549 102 668 159 751 277 c 1
 751 524 l 1
 611 513 l 2
 306 490 239 437 239 284 c 0
 239 161 320 102 414 102 c 0xbc
751 634 m 1
 751 723 l 2
 751 875 680 956 517 956 c 0
 413 956 281 928 181 880 c 1
 132 998 l 1
 246 1051 389 1080 511 1080 c 0
 752 1080 915 981 915 699 c 2xbc
 915 1 l 1
 795 1 l 1x7a
 773 149 l 1
 665 17 527 -20 404 -20 c 0
 213 -20 81 87 81 283 c 0
 81 510 237 598 569 621 c 2
 751 634 l 1
EndSplineSet
EndChar
StartChar: b
Encoding: 98 98 161
Width: 1164
VWidth: 0
GlyphClass: 2
Flags: W
HStem: -20 127<448.511 766.454> 0 21G<133 269.613> 954 126<455.663 774.66> 1453 20G<133 301>
VStem: 133 168<278.533 790.954 894 1461> 133 135<0 177.766> 910 170<269.624 790.004>
LayerCount: 2
UndoRedoHistory
Layer: 1
Undoes
EndUndoes
Redoes
EndRedoes
EndUndoRedoHistory
Fore
SplineSet
610 107 m 0xb2
 822 107 910 268 910 528 c 0
 910 779 833 954 618 954 c 0
 391 954 297 792 297 545 c 0
 297 254 412 107 610 107 c 0xb2
626 -20 m 0
 456 -20 345 84 283 186 c 1
 268 0 l 1
 133 0 l 1x76
 133 1461 l 1
 301 1473 l 1
 301 1078 l 1x7a
 300 894 l 1
 371 1002 486 1080 634 1080 c 0
 933 1080 1080 858 1080 528 c 0
 1080 199 921 -20 626 -20 c 0
EndSplineSet
EndChar
StartChar: c
Encoding: 99 99 171
Width: 935
VWidth: 0
GlyphClass: 2
Flags: W
HStem: -20 128<433.582 807.013> 952 128<437.993 796.71>
VStem: 84 170<299.521 747.407>
LayerCount: 2
UndoRedoHistory
Layer: 1
Undoes
EndUndoes
Redoes
EndRedoes
EndUndoRedoHistory
Fore
SplineSet
580 -20 m 0
 276 -20 84 195 84 524 c 0
 84 876 293 1080 581 1080 c 0
 740 1080 843 1026 869 1008 c 1
 822 894 l 1
 812 900 729 952 601 952 c 0
 393 952 254 786 254 524 c 0
 254 291 367 110 602 108 c 1
 605 108 608 108 611 108 c 0
 697 108 782 136 834 166 c 1
 865 53 l 1
 827 23 722 -20 580 -20 c 0
EndSplineSet
EndChar
StartChar: d
Encoding: 100 100 185
Width: 1169
VWidth: 0
Flags: W
HStem: -20 127<411.021 734.535> 0 21G<897.388 1037> 953 127<414.52 733.445> 1452 20G<871 1037>
VStem: 98 168<281.68 781.445> 876 161<263.494 781.32 889.696 1460> 899 138<0 177.897>
LayerCount: 2
UndoRedoHistory
Layer: 1
Undoes
EndUndoes
Redoes
EndRedoes
EndUndoRedoHistory
Fore
SplineSet
568 107 m 0xbc
 796 107 875 271 876 518 c 1
 876 804 775 953 577 953 c 0
 367 953 266 796 266 534 c 0
 266 282 352 107 568 107 c 0xbc
879.167216951 889.6958628 m 1
 871 1131 l 1
 871 1460 l 1
 1037 1472 l 1
 1037 0 l 1
 899 0 l 1x7a
 883.942849686 186.845547077 l 1
 828.944274245 75.4646497874 736.931494164 -20 554 -20 c 0
 257 -20 98 202 98 537 c 0
 98 857 270 1080 553 1080 c 0
 737.735952395 1080 820.242130876 995.810774424 879.167216951 889.6958628 c 1
EndSplineSet
EndChar
StartChar: e
Encoding: 101 101 196
Width: 1068
VWidth: 0
Flags: W
HStem: -20 126<427.389 821.755> 503 108<258.309 834.424> 957 123<419.615 714.289>
VStem: 84 168.684<295.984 503 611 769.115> 834.424 139.576<611 814.564>
LayerCount: 2
UndoRedoHistory
Layer: 1
Undoes
EndUndoes
Redoes
EndRedoes
EndUndoRedoHistory
Fore
SplineSet
585 -20 m 0
 292 -20 84 185 84 524 c 0
 84 869 292 1080 566 1080 c 0
 835 1080 974 891 974 587 c 0
 974 561 968 503 968 503 c 1
 252.683664242 503 l 1
 263.859684243 222.359185592 410.842702123 106 604 106 c 0
 724 106 810 141 907 190 c 1
 942 73 l 1
 844 15 738 -20 585 -20 c 0
834.424200699 611 m 1
 826.333985658 836.376467173 737.63572232 957 570 957 c 0
 398.771475554 957 277.659724854 822.758641751 258.309054761 611 c 1
 834.424200699 611 l 1
EndSplineSet
EndChar
StartChar: f
Encoding: 102 102 215
Width: 698
VWidth: 0
Flags: W
HStem: 0 21G<223 389> 952 106<74.0649 223 389 640> 952 88<36 193.696> 1358 122<423.436 646.431>
VStem: 223 166<0 952 1058 1325.32>
LayerCount: 2
UndoRedoHistory
Layer: 1
Undoes
EndUndoes
Redoes
EndRedoes
EndUndoRedoHistory
Fore
SplineSet
223 0 m 1xd8
 223 952 l 1xd8
 31 952 l 1
 36 1040 l 1xb8
 223 1057 l 1
 223 1124 l 2
 223 1392 327 1480 512 1480 c 0
 586 1480 635 1467 656 1463 c 1
 644 1348 l 1
 634 1350 588 1358 542 1358 c 0
 441 1358 389 1334 389 1134 c 2
 389 1058 l 1
 640 1058 l 1
 640 952 l 1
 389 952 l 1
 389 0 l 1
 223 0 l 1xd8
EndSplineSet
EndChar
StartChar: g
Encoding: 103 103 219
Width: 1159
VWidth: 0
Flags: W
HStem: -435 140<237 696.924> 14 127<406.319 735.463> 953 127<405.716 739.396> 1038 20G<878.643 1031>
VStem: 92 168<305.275 780.908> 872 159<-185.5 185.617 292.21 805.11 905.757 1058>
LayerCount: 2
UndoRedoHistory
Layer: 1
Undoes
EndUndoes
Redoes
EndRedoes
EndUndoRedoHistory
Fore
SplineSet
1031 84 m 2xdc
 1031 -360 830 -572 224 -435 c 1
 237 -295 l 1
 675 -397 872 -336 872 66 c 2
 872 185.616674076 l 1
 812.141194626 82.9723513272 703.760499537 14 545 14 c 0
 231 14 92 272 92 530 c 0
 92 827 234 1080 558 1080 c 0xec
 711.113606569 1080 810.437603935 1014.17850453 869.666771189 905.75709552 c 1
 880 1058 l 1
 1031 1058 l 1
 1031 84 l 2xdc
563 141 m 0
 793 141 868 307 869 490 c 1
 869 579 l 2
 869 791 799 953 566 953 c 0
 331 953 260 744 260 538 c 0
 260 344 328 141 563 141 c 0
EndSplineSet
EndChar
StartChar: h
Encoding: 104 104 230
Width: 1131
VWidth: 0
GlyphClass: 2
Flags: W
HStem: 0 21G<134 299 837 1003> 954 126<443.799 756.926> 1453 20G<134 300>
VStem: 134 165<0 800.746 911 1461> 837 166<0 863.668>
LayerCount: 2
UndoRedoHistory
Layer: 1
Undoes
EndUndoes
Redoes
EndRedoes
EndUndoRedoHistory
Fore
SplineSet
134 0 m 1
 134 1461 l 1
 300 1473 l 1
 300 1118 l 1
 294 911 l 1
 371 1020 496 1080 646 1080 c 0
 878 1080 1003 925 1003 654 c 2
 1003 0 l 1
 837 0 l 1
 837 648 l 2
 837 852 779 954 617 954 c 0
 363 954 299 763 299 579 c 2
 299 0 l 1
 134 0 l 1
EndSplineSet
EndChar
StartChar: i
Encoding: 105 105 237
Width: 486
VWidth: 0
Flags: W
HStem: 0 21G<160 324> 1039 20G<160 324> 1247 213<153.05 332.671>
VStem: 134 218<1265.65 1441.69> 160 164<0 1059>
LayerCount: 2
UndoRedoHistory
Layer: 1
Undoes
EndUndoes
Redoes
EndRedoes
EndUndoRedoHistory
Fore
SplineSet
243 1460 m 0xf0
 306 1460 352 1417 352 1354 c 0
 352 1291 306 1247 243 1247 c 0
 179 1247 134 1291 134 1354 c 0
 134 1417 179 1460 243 1460 c 0xf0
160 0 m 1xe8
 160 1059 l 1
 324 1059 l 1
 324 0 l 1
 160 0 l 1xe8
EndSplineSet
EndChar
StartChar: j
Encoding: 106 106 249
Width: 545
VWidth: 0
Flags: W
HStem: -371 135<20 180.924> 1039 20G<215 382> 1247 213<210.05 389.671>
VStem: 191 218<1265.65 1441.69> 215 167<-205.049 1059>
LayerCount: 2
UndoRedoHistory
Layer: 1
Undoes
EndUndoes
Redoes
EndRedoes
EndUndoRedoHistory
Fore
SplineSet
20 -371 m 1xe8
 11 -236 l 1
 59 -236 l 2
 211 -236 215 -174 215 11 c 2
 215 1059 l 1
 382 1059 l 1
 382 -19 l 2
 382 -272 300 -371 79 -371 c 2
 20 -371 l 1xe8
300 1460 m 0
 363 1460 409 1417 409 1354 c 0
 409 1291 363 1247 300 1247 c 0
 236 1247 191 1291 191 1354 c 0xf0
 191 1417 236 1460 300 1460 c 0
EndSplineSet
EndChar
StartChar: k
Encoding: 107 107 251
Width: 1039
VWidth: 0
Flags: W
HStem: 0 21G<140 304 821.019 1033> 1038 20G<775.528 995> 1452 20G<140 304>
VStem: 140 164<0 387.031 521.046 1460>
LayerCount: 2
UndoRedoHistory
Layer: 1
Undoes
EndUndoes
Redoes
EndRedoes
EndUndoRedoHistory
Fore
SplineSet
140 0 m 1
 140 1460 l 1
 304 1472 l 1
 304 739 l 1
 298.06351551 521.046212281 l 1
 794 1058 l 1
 995 1058 l 1
 533.486537421 574.911721081 l 1
 1033 0 l 1
 838 0 l 1
 417.520938569 495.230894574 l 1
 304 387.03125 l 1
 304 0 l 1
 140 0 l 1
EndSplineSet
EndChar
StartChar: l
Encoding: 108 108 251
Width: 629
VWidth: 0
GlyphClass: 2
Flags: W
HStem: -13 121<348.987 591> 1453 20G<151 315>
VStem: 151 164<141.981 1461>
LayerCount: 2
UndoRedoHistory
Layer: 1
Undoes
EndUndoes
Redoes
EndRedoes
EndUndoRedoHistory
Fore
SplineSet
462 -13 m 0
 273 -13 151 32 151 291 c 2
 151 1461 l 1
 315 1473 l 1
 315 277 l 2
 315 139 372 108 501 108 c 0
 528 108 558 109 591 111 c 1
 591 -9 l 1
 545 -11 502 -13 462 -13 c 0
EndSplineSet
EndChar
StartChar: m
Encoding: 109 109 262
Width: 1705
VWidth: 0
Flags: W
HStem: 0 21G<132 298 777 943 1411 1577> 953 127<436.273 706.606 1083.13 1348.27> 1039 20G<132 268.435>
VStem: 132 166<0 793.538> 132 134<941.24 1059> 777 166<0 797.681> 1411 166<0 880.446>
LayerCount: 2
UndoRedoHistory
Layer: 1
Undoes
EndUndoes
Redoes
EndRedoes
EndUndoRedoHistory
Fore
SplineSet
132 0 m 1xd6
 132 1059 l 1
 266 1059 l 1xae
 285.151678667 901.682639524 l 1
 357.833047464 1007.60549784 465.253273159 1080 611 1080 c 1
 784.48817715 1080 859.482068254 983.832350585 903.597158369 865.259399088 c 1
 975.983684941 994.95698343 1089.8532115 1080 1253 1080 c 0
 1473 1080 1577 941 1577 682 c 2
 1577 0 l 1
 1411 0 l 1
 1411 602 l 2
 1411 611.326732673 1411.02117439 620.78404078 1411.02117439 630.323495755 c 0
 1411.02117439 781.36486619 1405.71287129 953 1227 953 c 0
 1105 953 992 872 954 708 c 1
 946 680 945 626 943 543 c 1
 943 0 l 1
 777 0 l 1
 777 594 l 2
 777 843 736 953 584 953 c 0
 414 953 324 819 298 645 c 1
 298 0 l 1
 132 0 l 1xd6
EndSplineSet
EndChar
StartChar: n
Encoding: 110 110 267
Width: 1135
VWidth: 0
Flags: W
HStem: 0 21G<132 298 841 1007> 953 127<442.078 767.213> 1039 20G<132 278.439>
VStem: 132 166<0 803.545> 132 144<941.445 1059> 841 166<0 875.044>
LayerCount: 2
UndoRedoHistory
Layer: 1
Undoes
EndUndoes
Redoes
EndRedoes
EndUndoRedoHistory
Fore
SplineSet
132 0 m 1xd4
 132 1059 l 1
 276 1059 l 1xac
 293.930861015 911.966939675 l 1
 366.46012607 1013.82061571 481.675758826 1080 653 1080 c 0
 897 1080 1007 935 1007 647 c 2
 1007 0 l 1
 841 0 l 1
 841 665 l 2
 841 843 794 953 624 953 c 0
 368 953 298 782 298 590 c 2
 298 0 l 1
 132 0 l 1xd4
EndSplineSet
EndChar
StartChar: p
Encoding: 112 112 294
Width: 1156
VWidth: 0
Flags: W
HStem: -464 21G<132 298> -20 127<448.502 756.274> 953 127<446.993 764.165> 1038 20G<132 271.833>
VStem: 132 166<-464 179.201 276.609 797.134> 132 138<901.551 1058> 900 170<271.25 791.773>
LayerCount: 2
UndoRedoHistory
Layer: 1
Undoes
EndUndoes
Redoes
EndRedoes
EndUndoRedoHistory
Fore
SplineSet
604 107 m 0xe2
 814 107 900 271 900 528 c 0
 900 772 828 953 614 953 c 0
 387 953 292 789 291 545 c 1
 291 269 403 107 604 107 c 0xe2
132 -464 m 1xea
 132 1058 l 1
 270 1058 l 1xd6
 286.90899801 873.471369548 l 1
 357.607797628 999.938420021 472.108487792 1080 633 1080 c 0
 926 1080 1070 857 1070 526 c 0
 1070 205 913 -20 630 -20 c 0
 461.342949966 -20 353.697288009 73.6313381373 290.630563264 179.201258685 c 1
 298 -66 l 1
 298 -464 l 1
 132 -464 l 1xea
EndSplineSet
EndChar
StartChar: q
Encoding: 113 113 306
Width: 1183
VWidth: 0
Flags: W
HStem: -464 21G<893 1057> -20 126<408.321 739.212> 953 127<410.348 743.449> 1038 20G<904.957 1057>
VStem: 84 164<292.58 772.815> 893 164<-464 175.696 288.52 777.483> 907 150<917.627 1058>
LayerCount: 2
UndoRedoHistory
Layer: 1
Undoes
EndUndoes
Redoes
EndRedoes
EndUndoRedoHistory
Fore
SplineSet
574 106 m 0xe8
 796 106 890 273 889 553 c 0
 889 794 790 953 575 953 c 0
 352 953 248 779 248 531 c 0
 248 275 356 106 574 106 c 0xe8
893 -464 m 1xdc
 893 -71 l 1
 897.100205278 175.695684208 l 1
 837.204863749 65.897429911 738.857923365 -20 554 -20 c 0
 277 -20 84 208 84 522 c 0
 84 849 257 1080 556 1080 c 0xec
 729.866804596 1080 827.426002799 998.506439774 889.488467441 886.532910364 c 1
 907 1058 l 1
 1057 1058 l 1xda
 1057 -464 l 1
 893 -464 l 1xdc
EndSplineSet
EndChar
StartChar: r
Encoding: 114 114 317
Width: 730
VWidth: 0
Flags: W
HStem: 0 21G<138 304> 936 133<459.623 685.346>
VStem: 138 166<0 772.805> 138 133<887.163 1058>
LayerCount: 2
UndoRedoHistory
Layer: 1
Undoes
EndUndoes
Redoes
EndRedoes
EndUndoRedoHistory
Fore
SplineSet
138 0 m 1xe0
 138 1058 l 1
 271 1058 l 1xd0
 288.581278762 848.489761418 l 1
 373.110042835 1009.89792889 499.832144985 1069 618 1069 c 0
 648 1069 669 1068 692 1064 c 1
 685 928 l 1
 660 933 639 936 617 936 c 0
 432 936 304 783 304 599 c 2
 304 0 l 1
 138 0 l 1xe0
EndSplineSet
EndChar
StartChar: s
Encoding: 115 115 325
Width: 890
VWidth: 0
Flags: W
HStem: -20 123<235.528 613.848> 956 124<306.523 687.044>
VStem: 106 149.808<691.803 901.288> 674.832 146.347<165.014 400.217>
LayerCount: 2
UndoRedoHistory
Layer: 1
Undoes
EndUndoes
Redoes
EndRedoes
EndUndoRedoHistory
Fore
SplineSet
451 -20 m 0
 290 -20 149 48 114 69 c 1
 155 184 l 1
 204 158 320 103 454 103 c 0
 600 103 661 165 673 272 c 0
 674.181432003 282.525485117 674.832236299 292.508807142 674.832236299 302.013151704 c 0
 674.832236299 381.001238294 629.882282134 426.907160015 471 476 c 2
 361 510 l 2
 164 571 106 663 106 792 c 0
 106 960 229 1080 456 1080 c 0
 582 1080 680 1055 771 1010 c 1
 733 890 l 1
 674 920 584 956 473 956 c 0
 318 956 259 892 256 806 c 0
 255.873670822 801.873246856 255.807631431 797.874166201 255.807631431 793.995963049 c 0
 255.807631431 705.776602899 289.979581087 680.105062332 426 637 c 2
 530 604 l 2
 756.101845998 532.190830026 821.178997222 447.198351709 821.178997222 293.281611175 c 0
 821.178997222 288.585756637 821.118423245 283.82574722 821 279 c 0
 816 81 682 -20 451 -20 c 0
EndSplineSet
EndChar
StartChar: t
Encoding: 116 116 337
Width: 743
VWidth: 0
GlyphClass: 2
Flags: W
HStem: -10 119<394.379 673> 957 102<39 198 364 642>
VStem: 198 166<138.148 957> 229 135<1189.86 1338>
LayerCount: 2
UndoRedoHistory
Layer: 1
Undoes
EndUndoes
Redoes
EndRedoes
EndUndoRedoHistory
Fore
SplineSet
480 -10 m 0xe0
 258 -10 198 86 198 315 c 2
 198 957 l 1xe0
 35 957 l 1
 39 1048 l 1
 202 1059 l 1
 229 1338 l 1
 364 1348 l 1
 364 1059 l 1xd0
 642 1059 l 1
 642 957 l 1
 364 957 l 1
 364 315 l 2
 364 144 395 109 541 109 c 0
 606 109 673 115 673 115 c 1
 673 1 l 1
 673 1 593 -10 480 -10 c 0xe0
EndSplineSet
EndChar
StartChar: u
Encoding: 117 117 346
Width: 1125
VWidth: 0
GlyphClass: 2
Flags: W
HStem: -20 127<373.22 695.062> 0 21G<845.554 992> 1039 20G<126 292 826 992>
VStem: 126 166<193.574 1059> 826 166<241.548 1059> 848 144<0 117.218>
LayerCount: 2
UndoRedoHistory
Layer: 1
Undoes
EndUndoes
Redoes
EndRedoes
EndUndoRedoHistory
Fore
SplineSet
992 1059 m 1xb8
 992 0 l 1
 848 0 l 1x74
 831 139 l 1
 768 40 682 -20 499 -20 c 0
 255 -20 126 124 126 412 c 2
 126 1059 l 1
 292 1059 l 1
 292 394 l 2
 292 216 349 107 519 107 c 0
 756 107 826 262 826 464 c 2
 826 1059 l 1
 992 1059 l 1xb8
EndSplineSet
EndChar
StartChar: v
Encoding: 118 118 564
Width: 1080
VWidth: 0
Flags: W
HStem: 0 21G<453.268 635.58> 1038 20G<52 229.37 852.807 1029>
LayerCount: 2
UndoRedoHistory
Layer: 1
Undoes
EndUndoes
Redoes
EndRedoes
EndUndoRedoHistory
Fore
SplineSet
461 0 m 1
 52 1058 l 1
 222 1058 l 1
 442 461 l 1
 545.187613799 183.89132746 l 1
 646 463 l 1
 860 1058 l 1
 1029 1058 l 1
 628 0 l 1
 461 0 l 1
EndSplineSet
EndChar
StartChar: w
Encoding: 119 119 565
Width: 1563
VWidth: 0
Flags: W
HStem: 0 21G<343.386 513.093 1072.55 1231.39> 1038 20G<52 214.29 688.923 878.47 1354.04 1511>
LayerCount: 2
UndoRedoHistory
Layer: 1
Undoes
EndUndoes
Redoes
EndRedoes
EndUndoRedoHistory
Fore
SplineSet
349 0 m 1
 52 1058 l 1
 209 1058 l 1
 435.176923077 202.826923077 l 1
 695 1058 l 1
 872 1058 l 1
 1147.62523901 205.982791587 l 1
 1359 1058 l 1
 1511 1058 l 1
 1226 0 l 1
 1079 0 l 1
 784.963636364 912.363636364 l 1
 507 0 l 1
 349 0 l 1
EndSplineSet
EndChar
StartChar: x
Encoding: 120 120 568
Width: 1036
VWidth: 0
GlyphClass: 2
Flags: W
HStem: 0 21G<34 215.729 802.741 1002> 1039 20G<61 260.272 815.922 998>
LayerCount: 2
UndoRedoHistory
Layer: 1
Undoes
EndUndoes
Redoes
EndRedoes
EndUndoRedoHistory
Fore
SplineSet
817 0 m 1
 514 425 l 1
 201 0 l 1
 34 0 l 1
 429 543 l 1
 61 1059 l 1
 246 1059 l 1
 540 647 l 1
 830 1059 l 1
 998 1059 l 1
 620 535 l 1
 1002 0 l 1
 817 0 l 1
EndSplineSet
EndChar
StartChar: y
Encoding: 121 121 571
Width: 1075
VWidth: 0
Flags: W
HStem: -398 21G<384.875 485.651> 1038 20G<66 242.809 859.859 1035>
LayerCount: 2
UndoRedoHistory
Layer: 1
Undoes
EndUndoes
Redoes
EndRedoes
EndUndoRedoHistory
Fore
SplineSet
478 -398 m 1
 329 -366 l 1
 484.940595403 31.7361253544 l 1
 66 1058 l 1
 235 1058 l 1
 565.107142857 212.511904762 l 1
 867 1058 l 1
 1035 1058 l 1
 478 -398 l 1
EndSplineSet
EndChar
StartChar: z
Encoding: 122 122 575
Width: 923
VWidth: 0
GlyphClass: 2
Flags: W
HStem: 0 124<296 830> 940 119<141 652>
LayerCount: 2
UndoRedoHistory
Layer: 1
Undoes
EndUndoes
Redoes
EndRedoes
EndUndoRedoHistory
Fore
SplineSet
114 0 m 1
 114 107 l 1
 652 940 l 1
 141 940 l 1
 135 1059 l 1
 825 1059 l 1
 825 945 l 1
 296 124 l 1
 830 124 l 1
 834 0 l 1
 114 0 l 1
EndSplineSet
EndChar
StartChar: braceleft
Encoding: 123 123 164
Width: 770
VWidth: 0
Flags: W
HStem: -274 119<502.544 636> 543 126<103 247.317> 1371 122<497.88 636>
VStem: 312 137<-104.022 473.831 737.17 1319.47>
LayerCount: 2
UndoRedoHistory
Layer: 1
Undoes
EndUndoes
Redoes
EndRedoes
EndUndoRedoHistory
Fore
SplineSet
636 -274 m 1
 402 -274 312 -155 312 64 c 2
 312 250 l 2
 312 421 292 541 103 543 c 1
 103 669 l 1
 290 669 312 791 312 960 c 2
 312 1190 l 2
 312 1385 423 1492 636 1493 c 1
 636 1371 l 1
 494 1369 449 1311 449 1140 c 2
 449 883 l 1
 448 733 402 653 270 602 c 1
 401 565 449 488 449 333 c 2
 449 76 l 2
 449 -89 492 -153 636 -155 c 1
 636 -274 l 1
EndSplineSet
EndChar
StartChar: bar
Encoding: 124 124 163
Width: 337
VWidth: 0
GlyphClass: 2
Flags: W
VStem: 111 124<-366 1550>
LayerCount: 2
UndoRedoHistory
Layer: 1
Undoes
EndUndoes
Redoes
EndRedoes
EndUndoRedoHistory
Fore
SplineSet
111 -366 m 1
 111 1550 l 1
 235 1550 l 1
 235 -366 l 1
 111 -366 l 1
EndSplineSet
EndChar
StartChar: braceright
Encoding: 125 125 165
Width: 770
VWidth: 0
Flags: W
HStem: -274 121<113 246.526> 548 125<503.789 646> 1374 119<113 246.333>
VStem: 299 137<-102.156 478.97 741.31 1322.41>
LayerCount: 2
UndoRedoHistory
Layer: 1
Undoes
EndUndoes
Redoes
EndRedoes
EndUndoRedoHistory
Fore
SplineSet
113 -274 m 1
 113 -153 l 1
 255 -151 299 -94 299 77 c 2
 299 335 l 2
 299 457 340 553 478 614 c 1
 346 654 300 771 299 884 c 1
 299 1141 l 2
 299 1307 257 1372 113 1374 c 1
 113 1493 l 1
 347 1493 436 1374 436 1153 c 2
 436 964 l 2
 436 793 455 675 646 673 c 1
 646 548 l 1
 461 548 436 424 436 255 c 2
 436 27 l 2
 436 -168 328 -273 113 -274 c 1
EndSplineSet
EndChar
StartChar: asciitilde
Encoding: 126 126 157
Width: 1185
VWidth: 0
GlyphClass: 2
Flags: W
HStem: 505 127<678.109 945.412> 649 129<239.73 526.397>
LayerCount: 2
UndoRedoHistory
Layer: 1
Undoes
EndUndoes
Redoes
EndRedoes
EndUndoRedoHistory
Fore
SplineSet
144 491 m 1
 103 585 l 1
 148 693 234 778 362 778 c 0
 441 778 498 755 598 711 c 1
 693 671 772 632 832 632 c 0
 914 632 994 704 1032 788 c 1
 1079 701 l 1
 1030 580 953 505 830 505 c 0
 761 505 689 533 608 569 c 0
 504 615 429 649 359 649 c 0
 271 649 190 577 144 491 c 1
EndSplineSet
EndChar
StartChar: cent
Encoding: 162 162 179
Width: 982
VWidth: 0
GlyphClass: 2
Flags: W
HStem: -20 128<433.582 807.013> 952 128<437.993 796.71>
VStem: 84 170<299.521 747.407> 560 82<-155 1230>
LayerCount: 2
UndoRedoHistory
Layer: 1
Undoes
EndUndoes
Redoes
EndRedoes
EndUndoRedoHistory
Fore
SplineSet
560 -155 m 1
 560 1230 l 1
 642 1230 l 1
 642 -155 l 1
 560 -155 l 1
EndSplineSet
Refer: 171 99 N 1 0 0 1 0 0 2
EndChar
StartChar: sterling
Encoding: 163 163 337
Width: 1203
VWidth: 0
Flags: W
HStem: 0 131<471 1075> 0 112<155 296.48> 666 120<143 325 471 874> 1351 129<585.799 915.929>
VStem: 325 146<131 666 786 1221.99>
CounterMasks: 1 b0
LayerCount: 2
UndoRedoHistory
Layer: 1
Undoes
EndUndoes
Redoes
EndRedoes
EndUndoRedoHistory
Fore
SplineSet
155 0 m 1x78
 143 112 l 1x78
 325 129 l 1
 325 666 l 1
 143 666 l 1
 143 786 l 1
 325 786 l 1
 325 938 l 2
 325 1194 380 1480 733 1480 c 0
 877 1480 989 1426 1074 1354 c 1
 1006 1249 l 1
 920 1315 835 1351 733 1351 c 0
 532 1351 471 1190 471 966 c 2
 471 786 l 1
 874 786 l 1
 874 666 l 1
 471 666 l 1
 471 131 l 1
 1088 131 l 1
 1075 0 l 1xb8
 155 0 l 1x78
EndSplineSet
EndChar
StartChar: yen
Encoding: 165 165 575
Width: 1204
VWidth: 0
Flags: W
HStem: 0 21G<528 702> 284 104<206 528 702 1015> 575 104<208 476 751 1014> 1440 20G<55 239.461 965.244 1149>
VStem: 528 174<0 284 388 575>
LayerCount: 2
UndoRedoHistory
Layer: 1
Undoes
EndUndoes
Redoes
EndRedoes
EndUndoRedoHistory
Fore
SplineSet
528 0 m 1
 528 284 l 1
 206 284 l 1
 206 388 l 1
 528 388 l 1
 528 575 l 1
 208 575 l 1
 208 679 l 1
 476 679 l 1
 55 1460 l 1
 229 1460 l 1
 615 722 l 1
 975 1460 l 1
 1149 1460 l 1
 751 679 l 1
 1014 679 l 1
 1014 575 l 1
 702 575 l 1
 702 388 l 1
 1015 388 l 1
 1015 284 l 1
 702 284 l 1
 702 0 l 1
 528 0 l 1
EndSplineSet
EndChar
StartChar: brokenbar
Encoding: 166 166 169
Width: 334
VWidth: 0
Flags: W
HStem: 1440 20G<110 234>
VStem: 110 124<-208 475 780 1460>
LayerCount: 2
UndoRedoHistory
Layer: 1
Undoes
EndUndoes
Redoes
EndRedoes
EndUndoRedoHistory
Fore
SplineSet
110 780 m 1
 110 1460 l 1
 234 1460 l 1
 234 780 l 1
 110 780 l 1
110 -208 m 1
 110 475 l 1
 234 475 l 1
 234 -208 l 1
 110 -208 l 1
EndSplineSet
EndChar
StartChar: section
Encoding: 167 167 331
Width: 991
VWidth: 0
Flags: W
HStem: -18 85<251.762 657.966> 1458 87<347.906 768.272>
VStem: 153 104<694.124 930.689 1175.48 1375.28> 752 102<151.617 391.122 600.85 861.313>
LayerCount: 2
UndoRedoHistory
Layer: 1
Undoes
EndUndoes
Redoes
EndRedoes
EndUndoRedoHistory
Fore
SplineSet
628 547 m 1
 692 581 759 616 759 758 c 0
 759 859 662 898 526 952 c 1
 394 1003 l 1
 329 979 257 902 257 797 c 0
 257 683 350 658 510 594 c 2
 628 547 l 1
854 271 m 0
 854 69 672 -18 470 -18 c 0
 364 -18 252 5 159 48 c 1
 193 135 l 1
 272 93 378 67 475 67 c 0
 623 67 752 126 752 278 c 0
 752 389 680 435 482 503 c 0
 281 573 153 632 153 792 c 0
 153 908 223 986 318 1035 c 1
 215 1093 164 1158 164 1274 c 0
 164 1462 341 1545 538 1545 c 0
 634 1545 736 1524 823 1487 c 1
 792 1405 l 1
 722 1438 629 1458 540 1458 c 0
 399 1458 270 1408 270 1282 c 0
 270 1139 377 1109 564 1034 c 1
 774 951 862 904 862 746 c 0
 862 630 820 554 708 507 c 1
 799 456 854 380 854 271 c 0
EndSplineSet
EndChar
StartChar: dieresis
Encoding: 168 168 191
Width: 739
VWidth: 0
GlyphClass: 2
Flags: W
HStem: 1236 174<125 262 497 635>
VStem: 125 137<1236 1410> 497 138<1236 1410>
LayerCount: 2
UndoRedoHistory
Layer: 1
Undoes
EndUndoes
Redoes
EndRedoes
EndUndoRedoHistory
Fore
SplineSet
497 1236 m 1
 497 1410 l 1
 635 1410 l 1
 635 1236 l 1
 497 1236 l 1
125 1236 m 1
 125 1410 l 1
 262 1410 l 1
 262 1236 l 1
 125 1236 l 1
EndSplineSet
EndChar
StartChar: copyright
Encoding: 169 169 183
Width: 1790
VWidth: 0
GlyphClass: 2
Flags: W
HStem: -28 87<659.294 1127.79> 235 99<743.631 1115.61> 1068 21G<1117.5 1165> 1150 100<742.854 1092.62> 1431 88<659.294 1127.6>
VStem: 116 107<483.939 1007.69> 424 125<537.792 944.766> 1567 107<484.139 1007.69>
CounterMasks: 2 d8 07
LayerCount: 2
UndoRedoHistory
Layer: 1
Undoes
EndUndoes
Redoes
EndRedoes
EndUndoRedoHistory
Fore
SplineSet
893 -28 m 0
 505 -28 116 237 116 746 c 0
 116 1255 505 1519 893 1519 c 0
 1282 1519 1674 1255 1674 746 c 0
 1674 237 1283 -28 893 -28 c 0
893 59 m 0
 1236 59 1567 299 1567 746 c 0
 1567 1193 1236 1431 893 1431 c 0
 551 1431 223 1193 223 746 c 0
 223 298 551 59 893 59 c 0
913 235 m 0
 648 235 424 445 424 742 c 0
 424 1032 642 1250 905 1250 c 0
 1008 1250 1109 1220 1200 1158 c 1
 1155 1068 l 1
 1080 1125 983 1150 909 1150 c 0
 710 1150 549 984 549 748 c 0
 549 491 711 334 917 334 c 0
 998 334 1080 353 1167 406 c 1
 1203 320 l 1
 1114 263 1014 235 913 235 c 0
EndSplineSet
EndChar
StartChar: guillemotleft
Encoding: 171 171 228
Width: 985
VWidth: 0
Flags: W
LayerCount: 2
UndoRedoHistory
Layer: 1
Undoes
EndUndoes
Redoes
EndRedoes
EndUndoRedoHistory
Fore
SplineSet
385 148 m 1
 101 539 l 1
 389 933 l 1
 510 903 l 1
 246 542 l 1
 502 178 l 1
 385 148 l 1
738 148 m 1
 454 539 l 1
 741 933 l 1
 862 903 l 1
 598 542 l 1
 855 178 l 1
 738 148 l 1
EndSplineSet
EndChar
StartChar: uni00AD
Encoding: 173 173 359
Width: 957
VWidth: 0
GlyphClass: 2
Flags: W
HStem: 205 133<114 856>
LayerCount: 2
UndoRedoHistory
Layer: 1
Undoes
EndUndoes
Redoes
EndRedoes
EndUndoRedoHistory
Fore
SplineSet
114 205 m 1
 114 338 l 1
 856 338 l 1
 856 205 l 1
 114 205 l 1
EndSplineSet
EndChar
StartChar: registered
Encoding: 174 174 320
Width: 1787
VWidth: 0
GlyphClass: 2
Flags: W
HStem: -30 87<658.364 1126.47> 736 101<705 950.924> 1141 101<705 1097.49> 1431 88<658.364 1126.47>
VStem: 115 108<481.939 1005.91> 589 115<293 736 837 1141> 1128 112<870.898 1107.32> 1565 107<481.7 1005.47>
CounterMasks: 2 f0 0d
LayerCount: 2
UndoRedoHistory
Layer: 1
Undoes
EndUndoes
Redoes
EndRedoes
EndUndoRedoHistory
Fore
SplineSet
892 -30 m 0
 504 -30 115 235 115 744 c 0
 115 1253 504 1519 892 1519 c 0
 1281 1519 1672 1253 1672 744 c 0
 1672 235 1281 -30 892 -30 c 0
892 57 m 0
 1235 57 1565 296 1565 743 c 0
 1565 1190 1235 1431 892 1431 c 0
 550 1431 223 1191 223 744 c 0
 223 296 550 57 892 57 c 0
705 837 m 1
 937 837 l 2
 1083 837 1128 882 1128 992 c 0
 1128 1122 1066 1141 899 1141 c 2
 705 1141 l 1
 705 837 l 1
589 293 m 1
 589 1242 l 1
 916 1242 l 2
 1156 1242 1240 1165 1240 996 c 0
 1240 857 1177 766 1042 752 c 1
 1059 729 1274 293 1274 293 c 1
 1146 293 l 1
 1146 293 937 726 927 736 c 1
 704 736 l 1
 704 293 l 1
 589 293 l 1
EndSplineSet
EndChar
StartChar: macron
Encoding: 175 175 263
Width: 1056
VWidth: 0
Flags: W
HStem: 1272 119<224 809>
VStem: 224 585<1272 1391>
LayerCount: 2
UndoRedoHistory
Layer: 1
Undoes
EndUndoes
Redoes
EndRedoes
EndUndoRedoHistory
Fore
SplineSet
224 1272 m 1
 224 1391 l 1
 809 1391 l 1
 809 1272 l 1
 224 1272 l 1
EndSplineSet
EndChar
StartChar: degree
Encoding: 176 176 190
Width: 809
VWidth: 0
GlyphClass: 2
Flags: W
HStem: 900 94<278.356 528.691> 1379 94<282.109 527.913>
VStem: 105 108<1062.54 1311.35> 597 108<1061.07 1311.35>
LayerCount: 2
UndoRedoHistory
Layer: 1
Undoes
EndUndoes
Redoes
EndRedoes
EndUndoRedoHistory
Fore
SplineSet
404 900 m 0
 247 900 105 1017 105 1188 c 0
 105 1357 247 1473 404 1473 c 0
 564 1473 705 1357 705 1188 c 0
 705 1024 568 900 404 900 c 0
404 994 m 0
 511 994 597 1073 597 1187 c 0
 597 1301 511 1379 405 1379 c 0
 300 1379 213 1301 213 1187 c 0
 213 1072 298 994 404 994 c 0
EndSplineSet
EndChar
StartChar: plusminus
Encoding: 177 177 302
Width: 1154
VWidth: 0
GlyphClass: 2
Flags: W
HStem: 0 115<113 1042> 595 116<134 506 632 997>
VStem: 506 126<207 595 711 1090>
LayerCount: 2
UndoRedoHistory
Layer: 1
Undoes
EndUndoes
Redoes
EndRedoes
EndUndoRedoHistory
Fore
SplineSet
506 207 m 1
 506 595 l 1
 134 595 l 1
 134 711 l 1
 506 711 l 1
 506 1090 l 1
 631 1090 l 1
 631 711 l 1
 997 711 l 1
 997 595 l 1
 632 595 l 1
 632 207 l 1
 506 207 l 1
113 0 m 1
 113 115 l 1
 1042 115 l 1
 1042 0 l 1
 113 0 l 1
EndSplineSet
EndChar
StartChar: uni00B2
Encoding: 178 178 360
Width: 730
VWidth: 0
GlyphClass: 2
Flags: W
HStem: 649 97<250 622> 1406 98<232.027 484.016>
VStem: 521 112<1136.78 1368.74>
LayerCount: 2
UndoRedoHistory
Layer: 1
Undoes
EndUndoes
Redoes
EndRedoes
EndUndoRedoHistory
Fore
SplineSet
622 649 m 1
 107 649 l 1
 107 739 l 1
 347 980 521 1132 521 1254 c 0
 521 1360 453 1406 376 1406 c 0
 294 1406 214 1370 150 1284 c 1
 79 1343 l 1
 130 1439 251 1504 364 1504 c 0
 519 1504 633 1422 633 1263 c 0
 633 1074 462 940 250 746 c 1
 622 746 l 1
 622 649 l 1
EndSplineSet
EndChar
StartChar: uni00B3
Encoding: 179 179 363
Width: 800
VWidth: 0
Flags: W
HStem: 607 112<246.736 515.741> 1006 113<282 495.125> 1363 112<246.038 507.408>
VStem: 531 129<1156.22 1339.75> 551 128<753.596 960.959>
CounterMasks: 1 e0
LayerCount: 2
UndoRedoHistory
Layer: 1
Undoes
EndUndoes
Redoes
EndRedoes
EndUndoRedoHistory
Fore
SplineSet
419 607 m 0xe8
 337 607 219 632 159 694 c 1
 207 791 l 1
 256 746 347 719 409 719 c 0
 488 719 551 766 551 864 c 0xe8
 551 958 467 1006 356 1006 c 2
 282 1006 l 1
 282 1119 l 1
 354 1119 l 2
 454 1119 531 1160 531 1242 c 0
 531 1323 479 1363 409 1363 c 0
 342 1363 250 1333 210 1293 c 1
 160 1381 l 1
 216 1441 328 1475 414 1475 c 0
 540 1475 660 1399 660 1243 c 1xf0
 659 1166 616 1091 515 1068 c 1
 621 1036 679 959 679 861 c 0
 679 703 564 607 419 607 c 0xe8
EndSplineSet
EndChar
StartChar: acute
Encoding: 180 180 145
Width: 619
VWidth: 0
GlyphClass: 2
Flags: W
HStem: 1198 374
VStem: 112 389
LayerCount: 2
UndoRedoHistory
Layer: 1
Undoes
EndUndoes
Redoes
EndRedoes
EndUndoRedoHistory
Fore
SplineSet
112 1198 m 1
 295 1572 l 1
 501 1572 l 1
 209 1198 l 1
 112 1198 l 1
EndSplineSet
EndChar
StartChar: paragraph
Encoding: 182 182 293
Width: 1091
VWidth: 0
GlyphClass: 2
Flags: W
HStem: 1409 111<599 795 909 983>
VStem: 103 496<1013.76 1355.1> 485 114<-113 851> 795 114<-113 1409>
LayerCount: 2
UndoRedoHistory
Layer: 1
Undoes
EndUndoes
Redoes
EndRedoes
EndUndoRedoHistory
Fore
SplineSet
485 -113 m 1xb0
 485 851 l 1xb0
 204 851 103 1018 103 1189 c 0xd0
 103 1344 196 1520 516 1520 c 2
 983 1520 l 1
 983 1409 l 1
 909 1409 l 1
 909 -113 l 1
 795 -113 l 1
 795 1409 l 1
 599 1409 l 1
 599 -113 l 1
 485 -113 l 1xb0
EndSplineSet
EndChar
StartChar: periodcentered
Encoding: 183 183 301
Width: 398
VWidth: 0
Flags: W
HStem: 514 213<105.727 287.994>
VStem: 86 222<534.109 707.252>
LayerCount: 2
UndoRedoHistory
Layer: 1
Undoes
EndUndoes
Redoes
EndRedoes
EndUndoRedoHistory
Fore
SplineSet
197 727 m 0
 260 727 308 684 308 621 c 0
 308 558 260 514 197 514 c 0
 133 514 86 558 86 621 c 0
 86 684 133 727 197 727 c 0
EndSplineSet
EndChar
StartChar: cedilla
Encoding: 184 184 178
Width: 575
VWidth: 0
GlyphClass: 2
Flags: W
HStem: -383 386<213 258>
VStem: 125 171
LayerCount: 2
UndoRedoHistory
Layer: 1
Undoes
EndUndoes
Redoes
EndRedoes
EndUndoRedoHistory
Fore
SplineSet
125 -383 m 1
 213 3 l 1
 296 3 l 1
 258 -383 l 1
 125 -383 l 1
EndSplineSet
EndChar
StartChar: uni00B9
Encoding: 185 185 365
Width: 802
VWidth: 0
Flags: W
HStem: 659 123<197 372 528 694> 1449 20G<384.5 528>
VStem: 372 156<782 1307>
LayerCount: 2
UndoRedoHistory
Layer: 1
Undoes
EndUndoes
Redoes
EndRedoes
EndUndoRedoHistory
Fore
SplineSet
197 659 m 1
 197 782 l 1
 372 782 l 1
 372 1307 l 1
 335 1284 230 1243 192 1235 c 1
 192 1368 l 1
 226 1376 371 1442 398 1469 c 1
 528 1469 l 1
 528 782 l 1
 694 782 l 1
 694 659 l 1
 197 659 l 1
EndSplineSet
EndChar
StartChar: ordmasculine
Encoding: 186 186 290
Width: 844
VWidth: 0
Flags: W
HStem: 804 70<305.161 543.048> 1478 71<305.381 541.729>
VStem: 90 99<986.277 1365.27> 663 91<989.07 1358.41>
LayerCount: 2
UndoRedoHistory
Layer: 1
Undoes
EndUndoes
Redoes
EndRedoes
EndUndoRedoHistory
Fore
SplineSet
754 1174 m 0
 754 965 618 804 422 804 c 0
 214 804 90 962 90 1174 c 0
 90 1390 214 1549 422 1549 c 0
 636 1549 754 1393 754 1174 c 0
189 1175 m 0
 189 1015 267 874 422 874 c 0
 585 874 663 1013 663 1172 c 0
 663 1336 581 1478 422 1478 c 0
 268 1478 189 1338 189 1175 c 0
EndSplineSet
EndChar
StartChar: guillemotright
Encoding: 187 187 229
Width: 989
VWidth: 0
Flags: W
LayerCount: 2
UndoRedoHistory
Layer: 1
Undoes
EndUndoes
Redoes
EndRedoes
EndUndoRedoHistory
Fore
SplineSet
256 933 m 1
 540 542 l 1
 253 148 l 1
 132 179 l 1
 396 539 l 1
 138 903 l 1
 256 933 l 1
605 933 m 1
 889 542 l 1
 602 148 l 1
 482 179 l 1
 744 539 l 1
 488 903 l 1
 605 933 l 1
EndSplineSet
EndChar
StartChar: onequarter
Encoding: 188 188 287
Width: 1585
VWidth: 0
GlyphClass: 2
Flags: W
HStem: 0 21G<331 475.265> 188 104<1089 1317 1443 1556> 614 109<86 240 378 517> 1459 20G<254.5 378 1226.72 1370>
VStem: 240 138<723 1336> 1317 126<3 188 292 653>
LayerCount: 2
UndoRedoHistory
Layer: 1
Undoes
EndUndoes
Redoes
EndRedoes
EndUndoRedoHistory
Fore
SplineSet
1089 292 m 1
 1317 292 l 1
 1317 653 l 1
 1089 292 l 1
331 0 m 1
 1239 1479 l 1
 1370 1479 l 1
 463 0 l 1
 331 0 l 1
1318 3 m 1
 1318 188 l 1
 940 188 l 1
 940 279 l 1
 1308 838 l 1
 1443 838 l 1
 1443 292 l 1
 1556 292 l 1
 1564 188 l 1
 1442 188 l 1
 1441 3 l 1
 1318 3 l 1
86 614 m 1
 86 723 l 1
 240 723 l 1
 240 1336 l 1
 203 1313 110 1276 76 1264 c 1
 76 1375 l 1
 112 1388 241 1450 268 1477 c 1
 378 1476 l 1
 378 723 l 1
 517 723 l 1
 517 614 l 1
 86 614 l 1
EndSplineSet
EndChar
StartChar: onehalf
Encoding: 189 189 288
Width: 1645
VWidth: 0
Flags: W
HStem: -9 111<1201 1544> 617 110<127 247 385 509> 724 117<1143.04 1392.29> 1459 20G<254.5 385 1198.67 1344>
VStem: 247 138<727 1334> 1426 132<473.8 689.294>
CounterMasks: 1 b0
LayerCount: 2
UndoRedoHistory
Layer: 1
Undoes
EndUndoes
Redoes
EndRedoes
EndUndoRedoHistory
Fore
SplineSet
303 6 m 1x9c
 1211 1479 l 1
 1344 1479 l 1
 436 6 l 1
 303 6 l 1x9c
1023 -9 m 1
 1023 98 l 1
 1191 267 1426 459 1426 583 c 0
 1426 679 1359 724 1287 724 c 0
 1209 724 1131 690 1073 612 c 1
 1001 690 l 1
 1054 783 1170 841 1285 841 c 0xbc
 1423 841 1558 754 1558 591 c 0
 1558 404 1400 280 1201 102 c 1
 1550 102 l 1
 1544 -9 l 1
 1023 -9 l 1
127 617 m 1xdc
 127 727 l 1
 247 727 l 1
 247 1334 l 1
 211 1310 142 1272 112 1257 c 1
 112 1375 l 1
 154 1396 241 1450 268 1477 c 1
 385 1476 l 1
 385 727 l 1
 509 727 l 1
 509 617 l 1
 127 617 l 1xdc
EndSplineSet
EndChar
StartChar: threequarters
Encoding: 190 190 344
Width: 1615
VWidth: 0
Flags: W
HStem: 194 103<1074 1302 1429 1542> 615 113<175.763 446.907> 1009 113<213 426.497> 1362 113<174.178 437.945>
VStem: 461 131<1158.45 1341.16> 480 131<761.168 965.984> 1302 127<7 194 297 658>
CounterMasks: 1 70
LayerCount: 2
UndoRedoHistory
Layer: 1
Undoes
EndUndoes
Redoes
EndRedoes
EndUndoRedoHistory
Fore
SplineSet
1074 297 m 1xf2
 1302 297 l 1
 1302 658 l 1
 1074 297 l 1xf2
353 6 m 1
 1260 1479 l 1
 1392 1479 l 1
 486 6 l 1
 353 6 l 1
1303 7 m 1
 1303 194 l 1
 926 194 l 1
 926 283 l 1
 1293 845 l 1
 1429 845 l 1
 1429 297 l 1
 1542 297 l 1
 1550 194 l 1
 1427 194 l 1
 1427 7 l 1
 1303 7 l 1
350 615 m 0
 268 615 149 640 89 702 c 1
 138 798 l 1
 187 754 276 728 338 728 c 0
 417 728 480 774 480 871 c 0xf6
 480 963 397 1009 287 1009 c 2
 213 1009 l 1
 213 1122 l 1
 284 1122 l 2
 384 1122 461 1163 461 1244 c 0
 461 1324 410 1362 340 1362 c 0
 273 1362 181 1333 141 1293 c 1
 87 1380 l 1
 143 1440 258 1475 345 1475 c 0
 470 1475 592 1399 592 1246 c 0xfa
 592 1184 554 1099 448 1073 c 1
 553 1042 611 964 611 867 c 0xf6
 611 710 495 615 350 615 c 0
EndSplineSet
EndChar
StartChar: Eth
Encoding: 208 208 37
Width: 1522
VWidth: 0
GlyphClass: 2
Flags: W
HStem: 0 134<334 860.359> 681 114<62 658> 1308 132<334 851.944>
VStem: 158 176<134 1308> 1178 176<447.875 992.005>
LayerCount: 2
UndoRedoHistory
Layer: 1
Undoes
EndUndoes
Redoes
EndRedoes
EndUndoRedoHistory
Fore
SplineSet
658 795 m 1
 658 681 l 1
 62 681 l 1
 62 795 l 1
 658 795 l 1
EndSplineSet
Refer: 21 68 N 1 0 0 1 0 0 2
EndChar
StartChar: multiply
Encoding: 215 215 266
Width: 1204
VWidth: 0
Flags: W
LayerCount: 2
UndoRedoHistory
Layer: 1
Undoes
EndUndoes
Redoes
EndRedoes
EndUndoRedoHistory
Fore
SplineSet
899 202 m 1
 605 511 l 1
 309 202 l 1
 218 293 l 1
 514 606 l 1
 228 910 l 1
 319 1004 l 1
 605 700 l 1
 888 1000 l 1
 983 906 l 1
 695 606 l 1
 717 584 986 296 986 296 c 1
 899 202 l 1
EndSplineSet
EndChar
StartChar: Oslash
Encoding: 216 216 89
Width: 1628
VWidth: 0
GlyphClass: 2
Flags: W
HStem: -19 139<581.293 1037.42> 1320 139<586.371 1034.41>
VStem: 120 177<439.521 985.427> 1320 176<431.744 999.347>
LayerCount: 2
UndoRedoHistory
Layer: 1
Undoes
EndUndoes
Redoes
EndRedoes
EndUndoRedoHistory
Fore
SplineSet
515 -228 m 1
 419 -195 l 1
 1137 1662 l 1
 1239 1624 l 1
 515 -228 l 1
EndSplineSet
Refer: 78 79 N 1 0 0 1 0 0 2
EndChar
StartChar: germandbls
Encoding: 223 223 224
Width: 1174
VWidth: 0
Flags: W
HStem: -20 131<574.404 920.35> 0 21G<176 340> 1347 124<435.395 741.461>
VStem: 176 164<0 1242.47> 601 152<686.568 839.308> 805 157<1014.48 1288.16> 971 160<165.002 394.862>
LayerCount: 2
UndoRedoHistory
Layer: 1
Undoes
EndUndoes
Redoes
EndRedoes
EndUndoRedoHistory
Fore
SplineSet
340 0 m 1x7e
 176 0 l 1x7e
 176 1010 l 2
 176 1297 298 1471 595 1471 c 0
 819 1471 962 1347 962 1162 c 0
 962 952 753 843 753 752 c 0
 753 636 1131 577 1131 286 c 0
 1131 99 1009 -20 809 -20 c 0
 683 -20 558 17 480 56 c 1
 524 178 l 1
 580 149 679 111 790 111 c 0xbe
 918 111 971 194 971 283 c 0
 971 493 601 545 601 738 c 0
 601 901 804 960 805 1161 c 0
 806 1269 738 1347 600 1347 c 0
 413 1347 340 1252 340 1014 c 2
 340 0 l 1x7e
EndSplineSet
EndChar
StartChar: ae
Encoding: 230 230 147
Width: 1730
VWidth: 0
GlyphClass: 2
Flags: W
HStem: -16 124<323.284 654.437 1085.75 1494.63> 497 110<349.776 779 937 1381.53> 965 117<318.564 695.83 1108.27 1425.05>
VStem: 112 156<166.382 426.076> 779 158<272.925 495 607 773.486> 1500 130<684.855 892.728>
LayerCount: 2
UndoRedoHistory
Layer: 1
Undoes
EndUndoes
Redoes
EndRedoes
EndUndoRedoHistory
Fore
SplineSet
937 603 m 1
 1337 603 1500 644 1500 780 c 0
 1500 882 1421 965 1266 965 c 0
 1087 965 959 834 937 603 c 1
457 108 m 0
 579 108 738 173 825 264 c 1
 799 326 782 420 781 497 c 1
 626 497 l 2
 345 497 268 434 268 304 c 0
 268 167 344 108 457 108 c 0
435 -16 m 0
 255 -16 112 87 112 301 c 0
 112 520 279 607 616 607 c 2
 779 607 l 1
 779 722 l 2
 779 872 719 957 552 959 c 1
 441 959 299 923 213 879 c 1
 163 992 l 1
 252 1042 413 1083 547 1083 c 0
 728 1083 864 1013 884 840 c 1
 929 995 1097 1082 1256 1082 c 0
 1517 1082 1630 931 1630 781 c 0
 1630 579 1482 495 934 495 c 1
 944 216 1074 106 1271 105 c 0
 1379 105 1461 130 1565 185 c 1
 1613 78 l 1
 1517 18 1414 -19 1255 -19 c 0
 1085 -19 965 46 888 162 c 1
 801 63 607 -16 435 -16 c 0
EndSplineSet
EndChar
StartChar: eth
Encoding: 240 240 210
Width: 1244
VWidth: 0
GlyphClass: 2
Flags: W
HStem: -26 124<452.882 803.117> 826 120<446.706 791.33> 1522 20G<249 454.53 825.108 886.159>
VStem: 125 159<280.347 656.561> 967 148<265.701 654.063>
LayerCount: 2
UndoRedoHistory
Layer: 1
Undoes
EndUndoes
Redoes
EndRedoes
EndUndoRedoHistory
Fore
SplineSet
626 98 m 0
 851 98 967 250 967 480 c 0
 967 658 844 826 620 826 c 0
 408 826 284 674 284 471 c 0
 284 281 395 98 626 98 c 0
620 -26 m 0
 296 -26 125 210 125 472 c 0
 125 756 325 946 605 946 c 0
 753 946 819 886 879 841 c 1
 826 939 726 1071 544 1247 c 1
 288 1149 l 1
 241 1256 l 1
 465 1342 l 1
 249 1542 l 1
 434 1542 l 1
 589 1391 l 1
 877 1502 l 1
 926 1395 l 1
 673 1301 l 1
 865 1098 964 970 1030 844 c 0
 1081 746 1115 608 1115 474 c 0
 1115 192 952 -26 620 -26 c 0
EndSplineSet
EndChar
StartChar: divide
Encoding: 247 247 192
Width: 1130
VWidth: 0
GlyphClass: 2
Flags: W
HStem: 32 201<463 654> 495 135<82 1033> 871 197<463 656>
VStem: 463 191<32 233 871 1068>
LayerCount: 2
UndoRedoHistory
Layer: 1
Undoes
EndUndoes
Redoes
EndRedoes
EndUndoRedoHistory
Fore
SplineSet
463 871 m 1
 463 1068 l 1
 656 1068 l 1
 656 871 l 1
 463 871 l 1
82 495 m 1
 82 630 l 1
 1033 630 l 1
 1033 495 l 1
 82 495 l 1
463 32 m 1
 463 233 l 1
 654 233 l 1
 654 32 l 1
 463 32 l 1
EndSplineSet
EndChar
StartChar: Dcroat
Encoding: 272 272 23
Width: 1520
VWidth: 0
GlyphClass: 2
Flags: W
HStem: 0 134<334 860.359> 694 90<61 579> 1308 132<334 851.944>
VStem: 158 176<134 1308> 1178 176<447.875 992.005>
LayerCount: 2
UndoRedoHistory
Layer: 1
Undoes
EndUndoes
Redoes
EndRedoes
EndUndoRedoHistory
Fore
SplineSet
61 694 m 1
 61 784 l 1
 579 784 l 1
 579 694 l 1
 61 694 l 1
EndSplineSet
Refer: 21 68 N 1 0 0 1 0 0 2
EndChar
StartChar: dcroat
Encoding: 273 273 189
Width: 1276
VWidth: 0
GlyphClass: 2
Flags: W
HStem: -20 127<411.021 737.486> 0 21<908.413 1048> 953 127<413.598 735.856> 1196 109<137 632> 1453 20<882 1048>
VStem: 98 168<281.68 781.445> 887 161<271.369 772.706 888 1461> 910 138<0 180.634>
LayerCount: 2
UndoRedoHistory
Layer: 1
Undoes
EndUndoes
Redoes
EndRedoes
EndUndoRedoHistory
Fore
SplineSet
137 1196 m 1x3c
 137 1305 l 1
 632 1305 l 1
 632 1196 l 1
 137 1196 l 1x3c
EndSplineSet
Refer: 185 100 N 1 0 0 1 0 0 2
EndChar
StartChar: Hbar
Encoding: 294 294 48
Width: 1567
VWidth: 0
Flags: W
HStem: 0 21G<230 377 1205 1352> 680 138<377 1205> 1106 93<141 230 377 1205 1352 1441> 1432 20G<230 377 1205 1352>
VStem: 230 147<0 680 818 1106 1199 1452> 1205 147<0 680 818 1106 1199 1452>
LayerCount: 2
UndoRedoHistory
Layer: 1
Undoes
EndUndoes
Redoes
EndRedoes
EndUndoRedoHistory
Fore
SplineSet
377 818 m 1
 1205 818 l 1
 1205 1106 l 1
 377 1106 l 1
 377 818 l 1
230 0 m 1
 230 1106 l 1
 141 1106 l 1
 141 1199 l 1
 230 1199 l 1
 230 1452 l 1
 377 1452 l 1
 377 1199 l 1
 1205 1199 l 1
 1205 1452 l 1
 1352 1452 l 1
 1352 1199 l 1
 1441 1199 l 1
 1441 1106 l 1
 1352 1106 l 1
 1352 0 l 1
 1205 0 l 1
 1205 680 l 1
 377 680 l 1
 377 0 l 1
 230 0 l 1
EndSplineSet
EndChar
StartChar: hbar
Encoding: 295 295 233
Width: 1207
VWidth: 0
Flags: W
HStem: 0 21G<234 374 938 1078> 958 129<546.869 860.213> 1239 105<145 234 374 638> 1440 20G<234 374>
VStem: 234 140<0 813.578 909 1239 1344 1440> 938 140<0 873.24>
LayerCount: 2
UndoRedoHistory
Layer: 1
Undoes
EndUndoes
Redoes
EndRedoes
EndUndoRedoHistory
Fore
SplineSet
234 0 m 1
 234 1239 l 1
 145 1239 l 1
 145 1344 l 1
 234 1344 l 1
 234 1440 l 1
 374 1460 l 1
 374 1344 l 1
 638 1344 l 1
 638 1239 l 1
 374 1239 l 1
 374 909 l 1
 466 1022 597 1087 765 1087 c 0
 991 1087 1078 911 1078 641 c 2
 1078 0 l 1
 938 0 l 1
 938 589 l 2
 938 840 905 958 712 958 c 0
 536 958 396 826 374 724 c 1
 374 0 l 1
 234 0 l 1
EndSplineSet
EndChar
StartChar: dotlessi
Encoding: 305 305 194
Width: 427
VWidth: 0
GlyphClass: 2
Flags: W
HStem: 0 21G<152 296> 1039 20G<152 296>
VStem: 152 144<0 1059>
LayerCount: 2
UndoRedoHistory
Layer: 1
Undoes
EndUndoes
Redoes
EndRedoes
EndUndoRedoHistory
Fore
SplineSet
152 0 m 1
 152 1059 l 1
 296 1059 l 1
 296 0 l 1
 152 0 l 1
EndSplineSet
EndChar
StartChar: Eng
Encoding: 330 330 34
Width: 1367
VWidth: 0
Flags: W
HStem: -316 132<609.496 1002.43> 0 21G<157.959 295> 1329 146<572.688 976.605> 1432 20G<155 283.495>
VStem: 158 137<0 1116.2 1356.7 1452> 1083 137<-100.803 1218.57>
LayerCount: 2
UndoRedoHistory
Layer: 1
Undoes
EndUndoes
Redoes
EndRedoes
EndUndoRedoHistory
Fore
SplineSet
825 -316 m 0xec
 794 -316 745 -314 607 -301 c 1
 585 -174 l 1
 738 -183 748 -184 771 -184 c 0
 1063 -184 1083 -109 1083 169 c 2
 1083 980 l 2
 1083 1242 1009 1329 787 1329 c 0xec
 553 1329 389 1196 295 1059 c 1
 295 0 l 1
 158 0 l 1
 155 1452 l 1
 282 1452 l 1xdc
 298 1238 l 1
 491 1441 664 1475 836 1475 c 0
 1089 1475 1220 1305 1220 984 c 2
 1220 161 l 2
 1220 -135 1171 -316 825 -316 c 0xec
EndSplineSet
EndChar
StartChar: OE
Encoding: 338 338 79
Width: 1942
VWidth: 0
Flags: W
HStem: 813 33<1477.47 1571> 1052 266.408<804.117 976.083> 1094 50<1468 1599>
VStem: 432.756 85.0478<288.013 762.152> 839 80<218.899 345.977> 922.563 545.437<496 958.655> 1413 55<968 1094> 1468 141<1094 1144> 1477.47 93.5286<813 846>
LayerCount: 2
UndoRedoHistory
Layer: 1
Undoes
EndUndoes
Redoes
EndRedoes
EndUndoRedoHistory
Fore
SplineSet
832 112 m 1x9c
 828.019635278 112.05918758 824.08481176 112.166762689 820.195114759 112.322226406 c 1
 827.406386828 159.686629227 836.02953078 215.447158864 839 273 c 1
 839.600452315 348.056539336 871.568144082 388.500952379 922.563209814 408.837993301 c 1
 920.349405192 364.28186381 919.155412451 332.588408546 919 320 c 1
 897.555314012 238.883144306 830.905567588 128.209133712 830.905567588 113.611990415 c 0
 830.905567588 112.553306621 831.256154168 112 832 112 c 1x9c
830 -24 m 1
 546.796341851 -24 432.756357007 169.211450392 432.756357007 468.040544856 c 0
 432.756357007 497.370517918 433.85494468 527.717943254 436 559 c 1
 441.01114023 708.331978865 489.967451675 831.799085529 571.54357001 917.824281044 c 1
 541.031428699 820.516394266 523.579891807 719.426372041 521 633 c 1
 518.925033602 601.111042728 517.804191426 570.021164493 517.804191426 539.930947831 c 0
 517.804191426 298.568805803 589.920275718 121.525869363 820.195114759 112.322226406 c 1
 814.209363183 73.0071726836 809.196378776 39.4769756495 809.196378776 15.5083601138 c 0
 809.196378776 -9.41510906204 814.616730159 -24 830 -24 c 1
922.563209814 408.837993301 m 1
 929.904172019 556.585838512 948.458796288 845.769260883 977.542747972 1048.77855594 c 1
 1125.62678641 1038.81472033 1379.13744997 1006.81804516 1413 968 c 1
 1419 1094 l 1
 1468 1094 l 1xba
 1468 813 l 1
 1477.47142857 813 l 1xbc80
 1482 496 l 1
 1545 496 l 1
 1537 400 l 1
 1510 417 1084 427 1046 427 c 0
 998.853373133 427 956.495896851 422.370487768 922.563209814 408.837993301 c 1
1477.47142857 813 m 1x9880
 1477 846 l 1
 1571 846 l 1
 1571 813 l 1
 1477.47142857 813 l 1x9880
1468 1094 m 1xba
 1468 1144 l 1
 1599 1144 l 1
 1609 1094 l 1xb9
 1468 1094 l 1xba
977.542747972 1048.77855594 m 1
 946.330024337 1050.87870428 919.801087725 1052 901 1052 c 1
 766.300786116 1052 652.756985866 1003.46699252 571.54357001 917.824281044 c 1
 635.646690988 1122.25894152 757.396751111 1310 920 1310 c 1
 939.142857143 1315.71428571 956.734693878 1318.40816327 972.355685131 1318.40816327 c 0xd8
 1011.40816327 1318.40816327 1038.14285714 1301.57142857 1046 1273 c 1
 1019.00225129 1273 996.123684692 1178.47561039 977.542747972 1048.77855594 c 1
EndSplineSet
EndChar
StartChar: tbar
Encoding: 359 359 340
Width: 872
VWidth: 0
Flags: W
HStem: -19 133<478.159 735.417> 622 122<134 285 448 652> 954 115<135 285 448 731>
VStem: 285 163<147.162 622 744 954 1069 1151.6> 327 121<1228.4 1311>
LayerCount: 2
UndoRedoHistory
Layer: 1
Undoes
EndUndoes
Redoes
EndRedoes
EndUndoRedoHistory
Fore
SplineSet
565 -19 m 0xf0
 305 -19 285 108 285 433 c 2
 285 622 l 1
 134 622 l 1
 134 744 l 1
 285 744 l 1
 285 954 l 1
 122 954 l 1
 135 1069 l 1
 285 1069 l 1xf0
 327 1311 l 1
 448 1319 l 1xe8
 448 1069 l 1
 731 1069 l 1
 731 954 l 1
 448 954 l 1
 448 744 l 1
 652 744 l 1
 652 622 l 1
 448 622 l 1
 448 357 l 2
 448 157 471 114 602 114 c 0
 620 114 660 120 735 125 c 1
 750 -6 l 1
 628 -17 598 -19 565 -19 c 0xf0
EndSplineSet
EndChar
StartChar: uni0237
Encoding: 567 567 451
Width: 455
VWidth: 0
Flags: W
HStem: -455 139<-49 121.383> 1053 20G<135 315>
VStem: 135 180<-294.434 1073>
LayerCount: 2
UndoRedoHistory
Layer: 1
Undoes
EndUndoes
Redoes
EndRedoes
EndUndoRedoHistory
Fore
SplineSet
-49 -455 m 1
 -82 -316 l 1
 -22 -316 l 2
 160 -316 135 -259 135 -96 c 2
 135 1073 l 1
 315 1073 l 1
 315 -120 l 2
 315 -372 262 -455 8 -455 c 2
 -49 -455 l 1
EndSplineSet
EndChar
StartChar: uni02BC
Encoding: 700 700 452
Width: 512
VWidth: 0
Flags: W
HStem: 1090 447
VStem: 249 138<1493.7 1537>
LayerCount: 2
UndoRedoHistory
Layer: 1
Undoes
EndUndoes
Redoes
EndRedoes
EndUndoRedoHistory
Fore
SplineSet
137 1090 m 1
 249 1537 l 1
 387 1537 l 1
 239 1090 l 1
 137 1090 l 1
EndSplineSet
EndChar
StartChar: circumflex
Encoding: 710 710 180
Width: 775
VWidth: 0
GlyphClass: 2
Flags: W
HStem: 1227 373
VStem: 108 535
LayerCount: 2
UndoRedoHistory
Layer: 1
Undoes
EndUndoes
Redoes
EndRedoes
EndUndoRedoHistory
Fore
SplineSet
108 1227 m 1
 288 1600 l 1
 475 1600 l 1
 643 1227 l 1
 531 1227 l 1
 377 1501 l 1
 219 1227 l 1
 108 1227 l 1
EndSplineSet
EndChar
StartChar: caron
Encoding: 711 711 173
Width: 775
VWidth: 0
GlyphClass: 2
Flags: W
HStem: 1237 363
VStem: 104 542
LayerCount: 2
UndoRedoHistory
Layer: 1
Undoes
EndUndoes
Redoes
EndRedoes
EndUndoRedoHistory
Fore
SplineSet
276 1237 m 1
 104 1600 l 1
 222 1600 l 1
 366 1333 l 1
 527 1600 l 1
 646 1600 l 1
 461 1237 l 1
 276 1237 l 1
EndSplineSet
EndChar
StartChar: breve
Encoding: 728 728 168
Width: 736
VWidth: 0
Flags: W
HStem: 1274 98<264.497 469.925>
VStem: 134 102<1400.56 1507> 498 102<1401.13 1507>
LayerCount: 2
UndoRedoHistory
Layer: 1
Undoes
EndUndoes
Redoes
EndRedoes
EndUndoRedoHistory
Fore
SplineSet
365 1274 m 0
 241 1274 134 1341 134 1507 c 1
 236 1507 l 1
 236 1410 297 1372 365 1372 c 0
 433 1372 498 1410 498 1507 c 1
 600 1507 l 1
 600 1341 490 1274 365 1274 c 0
EndSplineSet
EndChar
StartChar: dotaccent
Encoding: 729 729 194
Width: 365
VWidth: 0
Flags: W
HStem: 1269 171<110 261>
VStem: 110 151<1269 1440>
LayerCount: 2
UndoRedoHistory
Layer: 1
Undoes
EndUndoes
Redoes
EndRedoes
EndUndoRedoHistory
Fore
SplineSet
110 1269 m 1
 110 1440 l 1
 261 1440 l 1
 261 1269 l 1
 110 1269 l 1
EndSplineSet
EndChar
StartChar: ring
Encoding: 730 730 322
Width: 603
VWidth: 0
GlyphClass: 2
Flags: W
HStem: 1228 75<227.745 376.177> 1502 78<226.987 377.089>
VStem: 118 88<1319.28 1485.36> 398 87<1319.28 1485.36>
LayerCount: 2
UndoRedoHistory
Layer: 1
Undoes
EndUndoes
Redoes
EndRedoes
EndUndoRedoHistory
Fore
SplineSet
302 1228 m 0
 196 1228 118 1306 118 1404 c 0
 118 1502 195 1580 302 1580 c 0
 409 1580 485 1502 485 1404 c 0
 485 1306 408 1228 302 1228 c 0
302 1303 m 0
 358 1303 398 1348 398 1403 c 0
 398 1457 358 1502 302 1502 c 0
 247 1502 206 1457 206 1403 c 0
 206 1348 246 1303 302 1303 c 0
EndSplineSet
EndChar
StartChar: ogonek
Encoding: 731 731 281
Width: 570
VWidth: 0
Flags: W
HStem: -414 106<263.02 445.783> -20 20G<269 401>
VStem: 115 140<-300.248 -134.698>
LayerCount: 2
UndoRedoHistory
Layer: 1
Undoes
EndUndoes
Redoes
EndRedoes
EndUndoRedoHistory
Fore
SplineSet
448 -385 m 1
 416 -400 353 -414 304 -414 c 0
 179 -414 115 -356 115 -268 c 0
 115 -156 217 -41 321 0 c 1
 401 0 l 1
 342 -42 255 -153 255 -229 c 0
 255 -285 293 -308 338 -308 c 0
 380 -308 427 -292 446 -284 c 1
 448 -385 l 1
EndSplineSet
EndChar
StartChar: tilde
Encoding: 732 732 343
Width: 874
VWidth: 0
GlyphClass: 2
Flags: W
HStem: 1259 114<445.275 620.304> 1356 103<225.777 406.802>
VStem: 129 84<1259 1348.47> 630 86<1378.72 1458>
LayerCount: 2
UndoRedoHistory
Layer: 1
Undoes
EndUndoes
Redoes
EndRedoes
EndUndoRedoHistory
Fore
SplineSet
213 1259 m 1xb0
 129 1259 l 1xb0
 129 1397 193 1459 287 1459 c 0x70
 404 1459 508 1373 570 1373 c 0
 601 1373 622 1393 630 1458 c 1
 716 1458 l 1
 716 1321 657 1259 576 1259 c 0xb0
 472 1259 353 1356 281 1356 c 0x70
 246 1356 221 1328 213 1259 c 1xb0
EndSplineSet
EndChar
StartChar: hungarumlaut
Encoding: 733 733 235
Width: 746
VWidth: 0
Flags: W
HStem: 1237 319
VStem: 114 582
LayerCount: 2
UndoRedoHistory
Layer: 1
Undoes
EndUndoes
Redoes
EndRedoes
EndUndoRedoHistory
Fore
SplineSet
350 1237 m 1
 531 1556 l 1
 696 1556 l 1
 436 1237 l 1
 350 1237 l 1
114 1237 m 1
 264 1556 l 1
 420 1556 l 1
 198 1237 l 1
 114 1237 l 1
EndSplineSet
EndChar
StartChar: uni0307
Encoding: 775 775 451
Width: 339
VWidth: 0
GlyphClass: 2
Flags: W
HStem: 1272 186<94 245>
VStem: 94 151<1272 1458>
LayerCount: 2
UndoRedoHistory
Layer: 1
Undoes
EndUndoes
Redoes
EndRedoes
EndUndoRedoHistory
Fore
SplineSet
94 1272 m 1
 94 1458 l 1
 245 1458 l 1
 245 1272 l 1
 94 1272 l 1
EndSplineSet
EndChar
StartChar: uni030F
Encoding: 783 783 454
Width: 695
VWidth: 0
Flags: W
HStem: 1297 302
VStem: 108 474
LayerCount: 2
UndoRedoHistory
Layer: 1
Undoes
EndUndoes
Redoes
EndRedoes
EndUndoRedoHistory
Fore
SplineSet
393 1297 m 1
 334 1297 l 1
 108 1599 l 1
 241 1599 l 1
 393 1297 l 1
582 1297 m 1
 526 1297 l 1
 351 1599 l 1
 473 1599 l 1
 582 1297 l 1
EndSplineSet
EndChar
StartChar: uni0311
Encoding: 785 785 453
Width: 685
VWidth: 0
GlyphClass: 2
Flags: W
HStem: 1412 94<242.607 443.787>
VStem: 113 100<1269 1382.48> 475 103<1269 1381.16>
LayerCount: 2
UndoRedoHistory
Layer: 1
Undoes
EndUndoes
Redoes
EndRedoes
EndUndoRedoHistory
Fore
SplineSet
113 1269 m 1
 113 1437 228 1506 342 1506 c 0
 457 1506 578 1436 578 1269 c 1
 475 1269 l 1
 475 1366 416 1412 343 1412 c 0
 269 1412 213 1366 213 1269 c 1
 113 1269 l 1
EndSplineSet
EndChar
StartChar: uni031B
Encoding: 795 795 454
Width: 481
VWidth: 0
GlyphClass: 2
Flags: W
HStem: 160 85<77 197.158>
VStem: 234 105<277.546 492.748>
LayerCount: 2
UndoRedoHistory
Layer: 1
Undoes
EndUndoes
Redoes
EndRedoes
EndUndoRedoHistory
Fore
SplineSet
220 494 m 1
 313 494 l 1
 327 462 339 413 339 363 c 0
 339 266 296 160 137 160 c 0
 118 160 98 162 77 165 c 1
 77 246 l 1
 84 245 93 245 99 245 c 0
 208 245 234 337 234 408 c 0
 234 441 228 473 220 494 c 1
EndSplineSet
EndChar
StartChar: uni0326
Encoding: 806 806 455
Width: 297
VWidth: 0
GlyphClass: 2
Flags: W
HStem: -664 468
VStem: 51 184
LayerCount: 2
UndoRedoHistory
Layer: 1
Undoes
EndUndoes
Redoes
EndRedoes
EndUndoRedoHistory
Fore
SplineSet
51 -664 m 1
 132 -196 l 1
 235 -196 l 1
 117 -664 l 1
 51 -664 l 1
EndSplineSet
EndChar
StartChar: Gamma
Encoding: 915 915 41
Width: 1209
VWidth: 0
GlyphClass: 2
Flags: W
HStem: 0 21G<229 351> 1355 94<351 1076>
VStem: 229 122<0 1355>
LayerCount: 2
UndoRedoHistory
Layer: 1
Undoes
EndUndoes
Redoes
EndRedoes
EndUndoRedoHistory
Fore
SplineSet
229 0 m 1
 229 1449 l 1
 1081 1448 l 1
 1076 1354 l 1
 351 1355 l 1
 351 0 l 1
 229 0 l 1
EndSplineSet
EndChar
StartChar: Delta
Encoding: 916 916 24
Width: 1474
VWidth: 0
Flags: W
HStem: 0 142<340 1154> 1426 20G<653.545 834.483>
LayerCount: 2
UndoRedoHistory
Layer: 1
Undoes
EndUndoes
Redoes
EndRedoes
EndUndoRedoHistory
Fore
SplineSet
340 142 m 1
 1154 142 l 1
 744 1275 l 1
 340 142 l 1
122 0 m 1
 661 1446 l 1
 827 1446 l 1
 1368 0 l 1
 122 0 l 1
EndSplineSet
EndChar
StartChar: Lambda
Encoding: 923 923 67
Width: 1474
VWidth: 0
GlyphClass: 2
Flags: W
HStem: 0 21G<123 306.008 1188.88 1368> 1426 20G<648.628 840.4>
LayerCount: 2
UndoRedoHistory
Layer: 1
Undoes
EndUndoes
Redoes
EndRedoes
EndUndoRedoHistory
Fore
SplineSet
123 0 m 1
 656 1446 l 1
 833 1446 l 1
 1368 0 l 1
 1196 0 l 1
 744 1270 l 1
 299 0 l 1
 123 0 l 1
EndSplineSet
EndChar
StartChar: Pi
Encoding: 928 928 94
Width: 1415
VWidth: 0
GlyphClass: 2
Flags: W
HStem: 0 21G<147 316 1118 1285> 1303 143<316 1118>
VStem: 147 169<0 1303> 1118 167<0 1303>
LayerCount: 2
UndoRedoHistory
Layer: 1
Undoes
EndUndoes
Redoes
EndRedoes
EndUndoRedoHistory
Fore
SplineSet
147 0 m 1
 147 1446 l 1
 1285 1446 l 1
 1285 0 l 1
 1118 0 l 1
 1118 1303 l 1
 316 1303 l 1
 316 0 l 1
 147 0 l 1
EndSplineSet
EndChar
StartChar: Sigma
Encoding: 931 931 106
Width: 1143
VWidth: 0
GlyphClass: 2
Flags: W
HStem: 0 134<305 1001> 675 133<305 944> 1299 134<305 1004>
VStem: 147 158<134 675 808 1299>
LayerCount: 2
UndoRedoHistory
Layer: 1
Undoes
EndUndoes
Redoes
EndRedoes
EndUndoRedoHistory
Fore
SplineSet
147 0 m 1
 147 1433 l 1
 1011 1433 l 1
 1004 1299 l 1
 305 1299 l 1
 305 808 l 1
 944 808 l 1
 944 675 l 1
 305 675 l 1
 305 134 l 1
 1009 134 l 1
 1001 0 l 1
 147 0 l 1
EndSplineSet
EndChar
StartChar: Phi
Encoding: 934 934 93
Width: 1644
VWidth: 0
GlyphClass: 2
Flags: W
HStem: 0 21G<744 912> 166 143<566.302 744 912 1090.96> 1171 143<555.084 744 912 1103> 1426 20G<744 912>
VStem: 121 179<552.675 941.974> 744 168<0 169.154 309 1171 1310.99 1446> 1360 179<552.062 942.387>
LayerCount: 2
UndoRedoHistory
Layer: 1
Undoes
EndUndoes
Redoes
EndRedoes
EndUndoRedoHistory
Fore
SplineSet
912 309 m 1
 1223 336 1360 521 1360 747 c 0
 1360 981 1211 1145 912 1171 c 1
 912 309 l 1
744 309 m 1
 744 1171 l 1
 449 1144 300 981 300 747 c 0
 300 521 437 337 744 309 c 1
744 0 m 1
 744 166 l 1
 334 195 121 436 121 747 c 0
 121 1064 348 1286 744 1314 c 1
 744 1446 l 1
 912 1446 l 1
 912 1314 l 1
 1313 1288 1539 1065 1539 747 c 0
 1539 434 1325 193 912 166 c 1
 912 0 l 1
 744 0 l 1
EndSplineSet
EndChar
StartChar: Omega
Encoding: 937 937 88
Width: 1598
VWidth: 0
GlyphClass: 2
Flags: W
HStem: -20 174<604.752 1016.35> 1279 176<607.079 1013.84>
VStem: 119 221<447.339 974.719> 1280 222<447.701 973.859>
LayerCount: 2
UndoRedoHistory
Layer: 1
Undoes
EndUndoes
Redoes
EndRedoes
EndUndoRedoHistory
Fore
SplineSet
811 -20 m 0
 376 -20 119 265 119 713 c 0
 119 1170 382 1455 811 1455 c 0
 1235 1455 1502 1168 1502 712 c 0
 1502 268 1242 -20 811 -20 c 0
811 154 m 0
 1121 154 1280 388 1280 712 c 0
 1280 1047 1115 1279 811 1279 c 0
 507 1279 340 1048 340 712 c 0
 340 388 501 154 811 154 c 0
EndSplineSet
EndChar
StartChar: rho
Encoding: 961 961 321
Width: 1250
VWidth: 0
GlyphClass: 2
Flags: W
HStem: -464 21G<138 305> -23 124<461.056 794.349> 955 125<460.935 797.984> 1038 20G<138 292.858>
VStem: 138 167<-455 151 274.804 783.076 1037.5 1058> 962 166<290.441 768.842>
LayerCount: 2
UndoRedoHistory
Layer: 1
Undoes
EndUndoes
Redoes
EndRedoes
EndUndoRedoHistory
Fore
SplineSet
631 101 m 0xec
 851 101 962 272 962 529 c 0
 962 779 856 955 633 955 c 0
 397 955 305 791 305 546 c 0
 305 269 384 101 631 101 c 0xec
138 -464 m 1
 138 1058 l 1
 291 1058 l 1xdc
 308 875 l 1
 366 1009 502 1080 650 1080 c 0
 954 1080 1128 850 1128 522 c 0
 1128 207 932 -23 656 -23 c 0
 511 -23 370 49 300 151 c 1
 304 77 305 6 305 -66 c 2
 305 -455 l 1
 138 -464 l 1
EndSplineSet
EndChar
StartChar: uni040A
Encoding: 1034 1034 463
Width: 2134
VWidth: 0
GlyphClass: 2
Flags: W
HStem: 0 128<1247 1746.37> 677 128<383 1072 1247 1759.47>
VStem: 207 176<0 677 805 1435> 1072 175<128 677 805 1435> 1864 170<230.609 582.673>
LayerCount: 2
UndoRedoHistory
Layer: 1
Undoes
EndUndoes
Redoes
EndRedoes
EndUndoRedoHistory
Fore
SplineSet
1072 0 m 1
 1072 677 l 1
 383 677 l 1
 383 0 l 1
 207 0 l 1
 207 1435 l 1
 383 1435 l 1
 383 805 l 1
 1072 805 l 1
 1072 1435 l 1
 1248 1435 l 1
 1247 805 l 1
 1538 805 l 2
 1908 805 2034 647 2034 407 c 0
 2034 161 1904 0 1540 0 c 2
 1072 0 l 1
1247 677 m 1
 1247 128 l 1
 1533 128 l 2
 1763 128 1864 207 1864 407 c 0
 1864 608 1774 677 1531 677 c 2
 1247 677 l 1
EndSplineSet
EndChar
StartChar: uni040B
Encoding: 1035 1035 464
Width: 1544
VWidth: 0
GlyphClass: 2
Flags: W
HStem: 0 21G<506 628 1255 1377> 697 94<628 1143.53> 1361 88<58 506 628 1082>
VStem: 506 122<0 697 791 1361> 1255 122<0 589.174>
LayerCount: 2
UndoRedoHistory
Layer: 1
Undoes
EndUndoes
Redoes
EndRedoes
EndUndoRedoHistory
Fore
SplineSet
1255 0 m 1
 1255 403 l 2
 1255 628 1145 697 936 697 c 2
 628 697 l 1
 628 0 l 1
 506 0 l 1
 506 1361 l 1
 58 1361 l 1
 58 1449 l 1
 1082 1449 l 1
 1082 1361 l 1
 628 1361 l 1
 628 791 l 1
 934 791 l 2
 1242 791 1377 658 1377 404 c 2
 1377 0 l 1
 1255 0 l 1
EndSplineSet
EndChar
StartChar: uni040F
Encoding: 1039 1039 466
Width: 1523
VWidth: 0
GlyphClass: 2
Flags: W
HStem: 0 87<347 719 841 1177> 1429 20G<225 347 1177 1299>
VStem: 225 122<87 1449> 719 122<-294 0> 1177 122<87 1449>
LayerCount: 2
UndoRedoHistory
Layer: 1
Undoes
EndUndoes
Redoes
EndRedoes
EndUndoRedoHistory
Fore
SplineSet
1299 1449 m 1
 1299 0 l 1
 841 0 l 1
 841 -294 l 1
 719 -294 l 1
 719 0 l 1
 225 0 l 1
 225 1449 l 1
 347 1449 l 1
 347 87 l 1
 1177 87 l 1
 1177 1449 l 1
 1299 1449 l 1
EndSplineSet
EndChar
StartChar: uni0411
Encoding: 1041 1041 470
Width: 1265
VWidth: 0
Flags: W
HStem: 0 134<374 902.189> 689 134<374 904.285> 1307 133<374 1043>
VStem: 198 176<134 689 823 1307> 1010 176<237.325 592.19>
LayerCount: 2
UndoRedoHistory
Layer: 1
Undoes
EndUndoes
Redoes
EndRedoes
EndUndoRedoHistory
Fore
SplineSet
198 0 m 1
 198 1440 l 1
 1043 1440 l 1
 1043 1307 l 1
 374 1307 l 1
 374 823 l 1
 696 823 l 2
 1066 823 1186 656 1186 416 c 0
 1186 170 1063 0 699 0 c 2
 198 0 l 1
374 689 m 1
 374 134 l 1
 692 134 l 2
 914 134 1010 213 1010 413 c 0
 1010 615 928 689 690 689 c 2
 374 689 l 1
EndSplineSet
EndChar
StartChar: uni0414
Encoding: 1044 1044 471
Width: 1463
VWidth: 0
Flags: W
HStem: -294 382<27 138 1257 1366> 0 88<138 226.707 336.06 1112 1233 1257> 1360.08 87.9161<516.081 1111.04>
VStem: 27 111<-294 0> 1112 121<88 1360.91> 1257 109<-294 0>
LayerCount: 2
UndoRedoHistory
Layer: 1
Undoes
EndUndoes
Redoes
EndRedoes
EndUndoRedoHistory
Fore
SplineSet
27 -294 m 1xbc
 27 88 l 1xbc
 187 88 l 1
 279 153 321 376 377 1090 c 1
 404 1448 l 1
 1233 1448 l 1
 1233 88 l 1x7c
 1366 88 l 1
 1366 -294 l 1
 1257 -294 l 1xbc
 1257 0 l 1
 138 0 l 1x7c
 138 -294 l 1
 27 -294 l 1xbc
516.081333729 1360.08391248 m 1
 491 1079 l 1
 455.634784364 636.050674155 428.868120757 256.417958709 336.059823176 88 c 1
 1112 88 l 1x7c
 1111.04364022 1360.91486542 l 1
 516.081333729 1360.08391248 l 1
EndSplineSet
EndChar
StartChar: uni041B
Encoding: 1051 1051 475
Width: 1555
VWidth: 0
Flags: W
HStem: -23 142<-6 226.09> -1 21G<1195 1370.01> 1306 129<476 1195>
VStem: 300 176<188.927 1306> 1195 175<-1 1306>
LayerCount: 2
UndoRedoHistory
Layer: 1
Undoes
EndUndoes
Redoes
EndRedoes
EndUndoRedoHistory
Fore
SplineSet
-6 -23 m 1xb8
 -6 119 l 1
 59 119 l 2xb8
 262 119 300 208 300 401 c 2
 300 1435 l 1
 1371 1434 l 1
 1370 -1 l 1
 1195 -1 l 1x78
 1195 1306 l 1
 476 1306 l 1
 476 426 l 2
 476 126 388 -23 71 -23 c 2
 -6 -23 l 1xb8
EndSplineSet
EndChar
StartChar: uni041F
Encoding: 1055 1055 479
Width: 1502
VWidth: 0
Flags: W
HStem: 0 21G<207 383 1142 1318> 1306 129<383 1142>
VStem: 207 176<0 1306> 1142 176<0 1306>
LayerCount: 2
UndoRedoHistory
Layer: 1
Undoes
EndUndoes
Redoes
EndRedoes
EndUndoRedoHistory
Fore
SplineSet
207 0 m 1
 207 1435 l 1
 1318 1435 l 1
 1318 0 l 1
 1142 0 l 1
 1142 1306 l 1
 383 1306 l 1
 383 0 l 1
 207 0 l 1
EndSplineSet
EndChar
StartChar: uni0423
Encoding: 1059 1059 481
Width: 1335
VWidth: 0
GlyphClass: 2
Flags: W
HStem: 0 21G<417 541.514> 1420 20G<158 283.71 1091.78 1217>
LayerCount: 2
UndoRedoHistory
Layer: 1
Undoes
EndUndoes
Redoes
EndRedoes
EndUndoRedoHistory
Fore
SplineSet
718 609 m 1
 1101 1440 l 1
 1217 1440 l 1
 532 0 l 1
 417 0 l 1
 667 509 l 1
 158 1440 l 1
 273 1440 l 1
 718 609 l 1
EndSplineSet
EndChar
StartChar: uni0424
Encoding: 1060 1060 482
Width: 1634
VWidth: 0
GlyphClass: 2
Flags: W
HStem: 0 21G<751 884> 118 140<565.792 751 884 1099.85> 1183 139<566.126 751 884 1099.44> 1432 20G<751 884>
VStem: 100 163<513.745 926.104> 751 133<0 120.004 258 1183 1322 1452> 1390 163<514.748 925.395>
LayerCount: 2
UndoRedoHistory
Layer: 1
Undoes
EndUndoes
Redoes
EndRedoes
EndUndoRedoHistory
Fore
SplineSet
884 256 m 1
 1237 290 1390 461 1390 720 c 0
 1390 981 1236 1151 884 1185 c 1
 884 256 l 1
751 258 m 1
 751 1183 l 1
 416 1145 263 979 263 720 c 0
 263 462 417 296 751 258 c 1
751 0 m 1
 751 118 l 1
 324 158 100 375 100 719 c 0
 100 1065 325 1282 751 1322 c 1
 751 1452 l 1
 884 1452 l 1
 884 1324 l 1
 1306 1294 1553 1088 1553 719 c 0
 1553 352 1305 148 884 117 c 1
 884 0 l 1
 751 0 l 1
EndSplineSet
EndChar
StartChar: uni0427
Encoding: 1063 1063 484
Width: 1073
VWidth: 0
GlyphClass: 2
Flags: W
HStem: -3 21G<872 1042> 482 151<352.517 872>
VStem: 105 174<704.262 1435> 872 170<-3 477 627 1435>
LayerCount: 2
UndoRedoHistory
Layer: 1
Undoes
EndUndoes
Redoes
EndRedoes
EndUndoRedoHistory
Fore
SplineSet
872 -3 m 1
 872 477 l 1
 885 481 482 482 482 482 c 1
 227 482 105 637 105 875 c 2
 105 1435 l 1
 279 1435 l 1
 279 912 l 2
 279 674 363 633 532 633 c 1
 532 633 864 630 872 627 c 1
 872 1435 l 1
 1042 1435 l 1
 1042 -3 l 1
 872 -3 l 1
EndSplineSet
EndChar
StartChar: uni0428
Encoding: 1064 1064 485
Width: 1609
VWidth: 0
GlyphClass: 2
Flags: W
HStem: 0 140<317 732 883 1308> 1420 20G<166 317 732 883 1308 1459>
VStem: 166 151<140 1440> 732 151<140 1440> 1308 151<140 1440>
LayerCount: 2
UndoRedoHistory
Layer: 1
Undoes
EndUndoes
Redoes
EndRedoes
EndUndoRedoHistory
Fore
SplineSet
166 0 m 1
 166 1440 l 1
 317 1440 l 1
 317 140 l 1
 732 140 l 1
 732 1440 l 1
 883 1440 l 1
 883 140 l 1
 1308 140 l 1
 1308 1440 l 1
 1459 1440 l 1
 1459 0 l 1
 166 0 l 1
EndSplineSet
EndChar
StartChar: uni0429
Encoding: 1065 1065 488
Width: 1677
VWidth: 0
Flags: W
HStem: 0 140<348 763 915 1339>
VStem: 198 150<140 1440> 763 152<140 1440> 1339 151<155 1440> 1439 151<-288 0>
LayerCount: 2
UndoRedoHistory
Layer: 1
Undoes
EndUndoes
Redoes
EndRedoes
EndUndoRedoHistory
Fore
SplineSet
1439 -288 m 1xe8
 1440 0 l 1
 198 0 l 1
 198 1440 l 1
 348 1440 l 1
 348 140 l 1
 763 140 l 1
 763 1440 l 1
 915 1440 l 1
 915 140 l 1
 1339 140 l 1
 1339 1440 l 1
 1490 1440 l 1
 1490 155 l 1xf0
 1590 155 l 1
 1590 -288 l 1
 1439 -288 l 1xe8
EndSplineSet
EndChar
StartChar: uni042A
Encoding: 1066 1066 489
Width: 1305
VWidth: 0
Flags: W
HStem: 0 134<414 914.189> 690 133<414.082 917.162> 1302 133<-14 238>
VStem: 238 176<134 690 823 1302.79> 1022 176<237.667 596.997>
LayerCount: 2
UndoRedoHistory
Layer: 1
Undoes
EndUndoes
Redoes
EndRedoes
EndUndoRedoHistory
Fore
SplineSet
238 0 m 1
 238 1302.7875 l 1
 -14 1302 l 1
 -14 1435 l 1
 415 1435 l 1
 414.082458771 823 l 1
 709 823 l 2
 1079 823 1198 656 1198 416 c 0
 1198 170 1075 0 711 0 c 2
 238 0 l 1
414 690 m 1
 414 134 l 1
 704 134 l 2
 926 134 1022 214 1022 414 c 0
 1022 615 941 690 703 690 c 2
 414 690 l 1
EndSplineSet
EndChar
StartChar: uni042B
Encoding: 1067 1067 490
Width: 1769
VWidth: 0
Flags: W
HStem: 0 94<347 923.391> 725 95<347 930.228> 1428 20G<225 347 1423 1545>
VStem: 225 122<94 725 820 1448> 1048 122<212.659 614.672> 1423 122<0 1449>
LayerCount: 2
UndoRedoHistory
Layer: 1
Undoes
EndUndoes
Redoes
EndRedoes
EndUndoRedoHistory
Fore
SplineSet
225 0 m 1
 225 1448 l 1
 347 1448 l 1
 347 820 l 1
 692 820 l 2
 1086 820 1170 629 1170 416 c 0
 1170 193 1095 0 699 0 c 2
 225 0 l 1
1423 0 m 1
 1423 1449 l 1
 1545 1449 l 1
 1545 0 l 1
 1423 0 l 1
347 725 m 1
 347 94 l 1
 705 94 l 2
 955 94 1048 189 1048 412 c 0
 1048 639 963 725 691 725 c 2
 347 725 l 1
EndSplineSet
EndChar
StartChar: uni042C
Encoding: 1068 1068 489
Width: 1277
VWidth: 0
GlyphClass: 2
Flags: W
HStem: 0 134<374 896.189> 690 133<374 898.407>
VStem: 198 176<134 690 823 1434> 1004 177<237.667 596.997>
LayerCount: 2
UndoRedoHistory
Layer: 1
Undoes
EndUndoes
Redoes
EndRedoes
EndUndoRedoHistory
Fore
SplineSet
198 0 m 1
 198 1434 l 1
 374 1434 l 1
 374 823 l 1
 690 823 l 2
 1060 823 1181 656 1181 416 c 0
 1181 170 1058 0 694 0 c 2
 198 0 l 1
374 690 m 1
 374 134 l 1
 686 134 l 2
 908 134 1004 214 1004 414 c 0
 1004 615 922 690 684 690 c 2
 374 690 l 1
EndSplineSet
EndChar
StartChar: uni0431
Encoding: 1073 1073 493
Width: 1076
VWidth: 0
Flags: W
HStem: -20 92<411.833 740.869> 746 73<432.471 731.445> 1133 77<621.726 890>
VStem: 874 84<219.096 597.592>
LayerCount: 2
UndoRedoHistory
Layer: 1
Undoes
EndUndoes
Redoes
EndRedoes
EndUndoRedoHistory
Fore
SplineSet
561 72 m 0
 804 72 874 194 874 434 c 0
 874 598 766 746 607 746 c 0
 555 746 395 732 248 588 c 1
 196 192 412 72 561 72 c 0
565 -20 m 0
 62 -20 116 536 116 521 c 1
 116 916 285 1175 893 1210 c 1
 890 1133 l 1
 622 1117 310 1078 230 685 c 1
 376 755 419 819 607 819 c 0
 849 819 958 573 958 419 c 0
 958 193 814 -20 565 -20 c 0
EndSplineSet
EndChar
StartChar: uni0432
Encoding: 1074 1074 492
Width: 1122
VWidth: 0
GlyphClass: 2
Flags: W
HStem: 0 85<315 825.222> 506 90<315 818.098> 970 85<315 800.763>
VStem: 193 122<85 506 596 970> 865 119<644.478 912.573> 900 120<151.432 452.432>
LayerCount: 2
UndoRedoHistory
Layer: 1
Undoes
EndUndoes
Redoes
EndRedoes
EndUndoRedoHistory
Fore
SplineSet
315 596 m 1xf8
 677 596 l 2
 840 596 865 696 865 784 c 0
 865 892 816 970 638 970 c 2
 315 970 l 1
 315 596 l 1xf8
315 85 m 1
 633 85 l 2
 867 85 900 183 900 301 c 0xf4
 900 393 899 506 682 506 c 2
 315 506 l 1
 315 85 l 1
193 0 m 1
 193 1055 l 1
 640 1055 l 2
 914 1055 984 912 984 789 c 0xf8
 984 666 920 594 815 562 c 1
 980 517 1020 390 1020 301 c 0
 1020 175 964 0 638 0 c 2
 193 0 l 1
EndSplineSet
EndChar
StartChar: uni0433
Encoding: 1075 1075 493
Width: 914
VWidth: 0
GlyphClass: 2
Flags: W
HStem: 0 21G<193 315> 961 94<315 859>
VStem: 193 122<0 961>
LayerCount: 2
UndoRedoHistory
Layer: 1
Undoes
EndUndoes
Redoes
EndRedoes
EndUndoRedoHistory
Fore
SplineSet
193 0 m 1
 193 1055 l 1
 859 1055 l 1
 859 961 l 1
 315 961 l 1
 315 0 l 1
 193 0 l 1
EndSplineSet
EndChar
StartChar: uni0434
Encoding: 1076 1076 496
Width: 1241
VWidth: 0
Flags: W
HStem: 0 76<148 225.354 297 918> 988.829 68.1715<528.618 918>
VStem: 61 93<-275 0> 918 132<76 988> 1007 104<-275 0>
LayerCount: 2
UndoRedoHistory
Layer: 1
Undoes
EndUndoes
Redoes
EndRedoes
EndUndoRedoHistory
Fore
SplineSet
297 74 m 1xf0
 918 74 l 1
 918 988 l 1
 535 988 l 1
 535.020601577 988.556242571 534.997911807 988.828544842 534.933723175 988.828544842 c 0
 531.882197278 988.828544842 435.041203153 373.412031534 437 393 c 1
 400 219 339 80 297 74 c 1xf0
61 -275 m 1
 61 76 l 1
 164 76 l 1
 246 100 267 175 304 278 c 1
 444 1057 l 1
 1050 1057 l 1
 1050 76 l 1xf0
 1111 76 l 1
 1111 -275 l 1
 1007 -275 l 1xe8
 1019 0 l 1
 148 0 l 1
 154 -275 l 1
 61 -275 l 1
EndSplineSet
EndChar
StartChar: uni0436
Encoding: 1078 1078 496
Width: 1538
VWidth: 0
GlyphClass: 2
Flags: W
HStem: 0 21G<61 199.504 691 821 1315.38 1453> 1037 20G<64 190.593 691 821 1325.25 1450>
VStem: 691 130<0 524 551 1057>
LayerCount: 2
UndoRedoHistory
Layer: 1
Undoes
EndUndoes
Redoes
EndRedoes
EndUndoRedoHistory
Fore
SplineSet
61 0 m 1
 603 546 l 1
 64 1057 l 1
 170 1057 l 1
 691 551 l 1
 691 1057 l 1
 821 1057 l 1
 821 551 l 1
 1346 1057 l 1
 1450 1057 l 1
 912 546 l 1
 1453 0 l 1
 1335 0 l 1
 821 524 l 1
 821 0 l 1
 691 0 l 1
 691 524 l 1
 180 0 l 1
 61 0 l 1
EndSplineSet
EndChar
StartChar: uni0438
Encoding: 1080 1080 499
Width: 1164
VWidth: 0
Flags: W
HStem: 0 21G<172 285.877 875 977> 1035 20G<172 272 875 977>
VStem: 172 100<157 1055> 875 102<0 812 967 1055>
LayerCount: 2
UndoRedoHistory
Layer: 1
Undoes
EndUndoes
Redoes
EndRedoes
EndUndoRedoHistory
Fore
SplineSet
172 0 m 1
 172 1055 l 1
 272 1055 l 1
 272 157 l 1
 875 967 l 1
 875 1055 l 1
 977 1055 l 1
 977 0 l 1
 875 0 l 1
 875 812 l 1
 271 0 l 1
 172 0 l 1
EndSplineSet
EndChar
StartChar: uni043A
Encoding: 1082 1082 499
Width: 1200
VWidth: 0
GlyphClass: 2
Flags: W
HStem: 0 21G<208 337 856.07 1024> 1035 20G<208 337 804 948.364>
VStem: 208 129<0 516 547 1055>
LayerCount: 2
UndoRedoHistory
Layer: 1
Undoes
EndUndoes
Redoes
EndRedoes
EndUndoRedoHistory
Fore
SplineSet
208 0 m 1
 208 1055 l 1
 337 1055 l 1
 337 547 l 1
 804 1054 l 1
 967 1056 l 1
 475 528 l 1
 1024 0 l 1
 877 0 l 1
 337 516 l 1
 337 0 l 1
 208 0 l 1
EndSplineSet
EndChar
StartChar: uni043B
Encoding: 1083 1083 500
Width: 1219
VWidth: 0
GlyphClass: 2
Flags: W
HStem: -7 100<43 192.566> 962 93<490 898>
VStem: 898 129<-1 962>
LayerCount: 2
UndoRedoHistory
Layer: 1
Undoes
EndUndoes
Redoes
EndRedoes
EndUndoRedoHistory
Fore
SplineSet
43 -7 m 1
 25 93 l 1
 201 93 267 135 314 489 c 1
 379 1055 l 1
 1027 1055 l 1
 1027 -1 l 1
 898 -1 l 1
 898 962 l 1
 490 962 l 1
 428 477 l 1
 379 63 291 -7 43 -7 c 1
EndSplineSet
EndChar
StartChar: uni043C
Encoding: 1084 1084 503
Width: 1359
VWidth: 0
Flags: W
HStem: 0 21G<193 306 1054 1167> 1035 20G<193 311.974 1051.1 1167>
VStem: 193 113<0 819> 1054 113<0 819>
LayerCount: 2
UndoRedoHistory
Layer: 1
Undoes
EndUndoes
Redoes
EndRedoes
EndUndoRedoHistory
Fore
SplineSet
193 0 m 1
 193 1055 l 1
 302 1055 l 1
 683 291 l 1
 1061 1055 l 1
 1167 1055 l 1
 1167 0 l 1
 1054 0 l 1
 1054 819 l 1
 727 162 l 1
 636 162 l 1
 306 819 l 1
 306 0 l 1
 193 0 l 1
EndSplineSet
EndChar
StartChar: uni043D
Encoding: 1085 1085 504
Width: 1246
VWidth: 0
Flags: W
HStem: 0 21G<193 315 932 1054> 513 95<315 932> 1035 20G<193 315 932 1054>
VStem: 193 122<0 513 608 1055> 932 122<0 513 608 1055>
LayerCount: 2
UndoRedoHistory
Layer: 1
Undoes
EndUndoes
Redoes
EndRedoes
EndUndoRedoHistory
Fore
SplineSet
193 0 m 1
 193 1055 l 1
 315 1055 l 1
 315 608 l 1
 932 608 l 1
 932 1055 l 1
 1054 1055 l 1
 1054 0 l 1
 932 0 l 1
 932 513 l 1
 315 513 l 1
 315 0 l 1
 193 0 l 1
EndSplineSet
EndChar
StartChar: uni043F
Encoding: 1087 1087 504
Width: 1218
VWidth: 0
GlyphClass: 2
Flags: W
HStem: 0 21G<193 315 904 1026> 963 92<315 904>
VStem: 193 122<0 963> 904 122<0 963>
LayerCount: 2
UndoRedoHistory
Layer: 1
Undoes
EndUndoes
Redoes
EndRedoes
EndUndoRedoHistory
Fore
SplineSet
193 0 m 1
 193 1055 l 1
 1026 1055 l 1
 1026 0 l 1
 904 0 l 1
 904 963 l 1
 315 963 l 1
 315 0 l 1
 193 0 l 1
EndSplineSet
EndChar
StartChar: uni0442
Encoding: 1090 1090 509
Width: 1025
VWidth: 0
Flags: W
HStem: 0 21G<435 571> 954 101<136 435 571 875>
VStem: 435 136<0 954>
LayerCount: 2
UndoRedoHistory
Layer: 1
Undoes
EndUndoes
Redoes
EndRedoes
EndUndoRedoHistory
Fore
SplineSet
435 0 m 1
 435 954 l 1
 136 954 l 1
 136 1055 l 1
 875 1055 l 1
 875 954 l 1
 571 954 l 1
 571 0 l 1
 435 0 l 1
EndSplineSet
EndChar
StartChar: uni0443
Encoding: 1091 1091 510
Width: 1118
VWidth: 0
Flags: W
HStem: -304 101<251 538.583> 1035 20G<118 252.073 937.816 1066>
VStem: 584.072 112.076<-152.509 147.067>
LayerCount: 2
UndoRedoHistory
Layer: 1
Undoes
EndUndoes
Redoes
EndRedoes
EndUndoRedoHistory
Fore
SplineSet
251 -304 m 1
 251 -203 l 1
 541.023601058 -203 584.07188786 -184.882119804 584.07188786 13.3778541828 c 0
 584.07188786 18.1469166581 584.046979117 23.0202135499 584 28 c 2
 582.719712707 147.066718232 l 1
 118 1055 l 1
 242 1055 l 1
 630.413793103 283.774535809 l 1
 946 1055 l 1
 1066 1055 l 1
 694.752704556 147.611305805 l 1
 696 26 l 2
 696.095317406 17.3578885511 696.148236242 8.93180791061 696.148236242 0.716754537275 c 0
 696.148236242 -249.627055947 647.005060358 -304 251 -304 c 1
EndSplineSet
EndChar
StartChar: uni0444
Encoding: 1092 1092 509
Width: 1473
VWidth: 0
GlyphClass: 2
Flags: W
HStem: -381 21G<645 748> 43 91<317.61 642.055 750.966 1074.3> 929 90<297.651 633.881 760.882 1093.53>
VStem: 63 118<305.645 784.351> 645 103<-381 80 159.093 898.088 970 1304> 1213 117<310.155 780.82>
LayerCount: 2
UndoRedoHistory
Layer: 1
Undoes
EndUndoes
Redoes
EndRedoes
EndUndoRedoHistory
Fore
SplineSet
959 134 m 0
 1115 134 1213 331 1213 541 c 0
 1213 754 1132 928 975 928 c 0
 904 928 819 917 748 878 c 1
 748 179 l 1
 815 140 892 134 959 134 c 0
434 134 m 0
 499 134 581 142 645 175 c 1
 645 885 l 1
 572 924 484 929 417 929 c 0
 258 929 181 754 181 542 c 0
 181 332 275 134 434 134 c 0
645 -381 m 1
 645 80 l 1
 584 52 499 43 428 43 c 0
 226 43 63 249 63 541 c 0
 63 833 207 1019 418 1019 c 0
 484 1019 584 998 645 970 c 1
 645 1304 l 1
 748 1304 l 1
 748 970 l 1
 812 999 902 1019 973 1019 c 0
 1183 1019 1330 834 1330 542 c 0
 1330 252 1167 43 963 43 c 0
 892 43 807 52 748 80 c 1
 748 -381 l 1
 645 -381 l 1
EndSplineSet
EndChar
StartChar: uni0446
Encoding: 1094 1094 513
Width: 1198
VWidth: 0
Flags: W
HStem: 0 77<335 890> 1037 20G<208 335 890 1019>
VStem: 208 127<77 1057> 890 129<135 1057> 953 161<-275 -12.1733>
LayerCount: 2
UndoRedoHistory
Layer: 1
Undoes
EndUndoes
Redoes
EndRedoes
EndUndoRedoHistory
Fore
SplineSet
953 -275 m 1xe8
 968 0 l 1
 208 0 l 1
 208 1057 l 1
 335 1057 l 1
 335 77 l 1
 890 77 l 1
 890 1057 l 1
 1019 1057 l 1
 1019 135 l 1xf0
 1114 135 l 1
 1114 -275 l 1
 953 -275 l 1xe8
EndSplineSet
EndChar
StartChar: uni0447
Encoding: 1095 1095 514
Width: 1058
VWidth: 0
Flags: W
HStem: 0 21G<728 895> 385 127<370.074 727.575> 1039 20G<136 304 728 895>
VStem: 136 168<588.062 1059> 728 167<0 412 536.144 1059>
LayerCount: 2
UndoRedoHistory
Layer: 1
Undoes
EndUndoes
Redoes
EndRedoes
EndUndoRedoHistory
Fore
SplineSet
728 0 m 1
 728 412 l 1
 712 396 559 385 520 385 c 0
 285 386 136 454 136 797 c 2
 136 1059 l 1
 304 1059 l 1
 304 808 l 2
 304 561 376 512 531 512 c 0
 577 512 726 539 728 555 c 1
 728 1059 l 1
 895 1059 l 1
 895 0 l 1
 728 0 l 1
EndSplineSet
EndChar
StartChar: uni0448
Encoding: 1096 1096 515
Width: 1491
VWidth: 0
Flags: W
HStem: 0 76<412 735 840 1162> 1035 20G<289 412 735 840 1162 1287>
VStem: 289 123<76 1055> 735 105<76 1055> 1162 125<76 1055>
LayerCount: 2
UndoRedoHistory
Layer: 1
Undoes
EndUndoes
Redoes
EndRedoes
EndUndoRedoHistory
Fore
SplineSet
289 0 m 1
 289 1055 l 1
 412 1055 l 1
 412 76 l 1
 735 76 l 1
 735 1055 l 1
 840 1055 l 1
 840 76 l 1
 1162 76 l 1
 1162 1055 l 1
 1287 1055 l 1
 1287 0 l 1
 289 0 l 1
EndSplineSet
EndChar
StartChar: uni0449
Encoding: 1097 1097 514
Width: 1446
VWidth: 0
GlyphClass: 2
Flags: W
HStem: 0 77<349 696 837 1124> 1037 20G<210 349 696 837 1124 1265>
VStem: 210 139<77 1057> 696 141<77 1057> 1124 141<134 1057> 1203 158<-280 0>
LayerCount: 2
UndoRedoHistory
Layer: 1
Undoes
EndUndoes
Redoes
EndRedoes
EndUndoRedoHistory
Fore
SplineSet
1203 -280 m 1xf4
 1214 0 l 1
 210 0 l 1
 210 1057 l 1
 349 1057 l 1
 349 77 l 1
 696 77 l 1
 696 1057 l 1
 837 1057 l 1
 837 77 l 1
 1124 77 l 1
 1124 1057 l 1
 1265 1057 l 1
 1265 134 l 1xf8
 1361 134 l 1
 1361 -280 l 1
 1203 -280 l 1xf4
EndSplineSet
EndChar
StartChar: uni044A
Encoding: 1098 1098 515
Width: 1028
VWidth: 0
GlyphClass: 2
Flags: W
HStem: 0 85<356 688.374> 578 93<357 691.961> 978 77<82 228>
VStem: 228 128<85 578 671 978> 771 145<170.976 500.418>
LayerCount: 2
UndoRedoHistory
Layer: 1
Undoes
EndUndoes
Redoes
EndRedoes
EndUndoRedoHistory
Fore
SplineSet
356 85 m 1
 574 85 l 2
 729 85 771 242 771 349 c 0
 771 462 716 578 567 578 c 2
 356 578 l 1
 356 85 l 1
228 0 m 1
 228 978 l 1
 82 978 l 1
 82 1055 l 1
 357 1055 l 1
 357 671 l 1
 557 671 l 2
 859 671 916 490 916 347 c 0
 916 194 848 0 559 0 c 2
 228 0 l 1
EndSplineSet
EndChar
StartChar: uni044B
Encoding: 1099 1099 516
Width: 1506
VWidth: 0
GlyphClass: 2
Flags: W
HStem: 0 85<314 725.149> 576 92<315 734.366> 1035 20G<193 315 1192 1314>
VStem: 193 121<85 576 668 1055> 819 116<175.151 496.514> 1192 122<0 1055>
LayerCount: 2
UndoRedoHistory
Layer: 1
Undoes
EndUndoes
Redoes
EndRedoes
EndUndoRedoHistory
Fore
SplineSet
1192 0 m 1
 1192 1055 l 1
 1314 1055 l 1
 1314 0 l 1
 1192 0 l 1
314 85 m 1
 574 85 l 2
 730 85 819 166 819 347 c 0
 819 503 728 576 577 576 c 2
 314 576 l 1
 314 85 l 1
193 0 m 1
 193 1055 l 1
 315 1055 l 1
 315 668 l 1
 568 668 l 2
 871 668 935 487 935 345 c 0
 935 192 870 0 570 0 c 2
 193 0 l 1
EndSplineSet
EndChar
StartChar: uni044C
Encoding: 1100 1100 517
Width: 1018
VWidth: 0
GlyphClass: 2
Flags: W
HStem: 0 85<314 725.149> 576 92<315 734.366> 1035 20G<193 315>
VStem: 193 121<85 576 668 1055> 819 116<175.151 496.514>
LayerCount: 2
UndoRedoHistory
Layer: 1
Undoes
EndUndoes
Redoes
EndRedoes
EndUndoRedoHistory
Fore
SplineSet
314 85 m 1
 574 85 l 2
 730 85 819 166 819 347 c 0
 819 503 728 576 577 576 c 2
 314 576 l 1
 314 85 l 1
193 0 m 1
 193 1055 l 1
 315 1055 l 1
 315 668 l 1
 568 668 l 2
 871 668 935 487 935 345 c 0
 935 192 870 0 570 0 c 2
 193 0 l 1
EndSplineSet
EndChar
StartChar: uni044D
Encoding: 1101 1101 520
Width: 1195
VWidth: 0
Flags: W
HStem: -28 92<282.56 685.178> 474 101<470 911> 997 90<284.711 688.065>
VStem: 911 103<305.079 474 575 759.804>
LayerCount: 2
UndoRedoHistory
Layer: 1
Undoes
EndUndoes
Redoes
EndRedoes
EndUndoRedoHistory
Fore
SplineSet
499 -28 m 0
 361 -28 231 9 179 66 c 1
 210 144 l 1
 319 82 411 64 492 64 c 0
 736 64 895 243 911 474 c 1
 470 474 l 1
 470 575 l 1
 911 575 l 1
 894 813 766 997 487 997 c 0
 371 997 287 960 207 912 c 1
 170 988 l 1
 243 1054 384 1087 485 1087 c 0
 902 1087 1014 771 1014 511 c 0
 1014 277 872 -28 499 -28 c 0
EndSplineSet
EndChar
StartChar: uni044E
Encoding: 1102 1102 521
Width: 1520
VWidth: 0
Flags: W
HStem: -28 92<743.971 1076.15> 0 21G<172 260> 483 84<260 471> 995 92<748.235 1080.88> 1035 20G<172 260>
VStem: 172 88<0 483 567 1055> 471 106<268.501 483 567 791.166> 1235 103<253.733 805.963>
LayerCount: 2
UndoRedoHistory
Layer: 1
Undoes
EndUndoes
Redoes
EndRedoes
EndUndoRedoHistory
Fore
SplineSet
915 64 m 0xb7
 1169 64 1235 292 1235 525 c 0
 1235 765 1179 995 910 995 c 0
 652 995 577 752 577 520 c 0
 577 293 655 64 915 64 c 0xb7
910 -28 m 0
 600 -28 476 191 471 483 c 1
 260 483 l 1
 260 0 l 1
 172 0 l 1
 172 1055 l 1
 260 1055 l 1x6f
 260 567 l 1
 471 567 l 1
 477 855 603 1087 915 1087 c 0
 1253 1087 1338 834 1338 528 c 0
 1338 236 1241 -28 910 -28 c 0
EndSplineSet
EndChar
StartChar: uni044F
Encoding: 1103 1103 522
Width: 1136
VWidth: 0
Flags: W
HStem: 0 21G<181 318.981 822 944> 432 89<504 822> 969 86<326.553 822>
VStem: 124 117<610.986 893.932> 822 122<0 432 521 969>
LayerCount: 2
UndoRedoHistory
Layer: 1
Undoes
EndUndoes
Redoes
EndRedoes
EndUndoRedoHistory
Fore
SplineSet
510 521 m 2
 822 521 l 1
 822 969 l 1
 489 969 l 2
 278 969 241 851 241 745 c 0
 241 610 336 521 510 521 c 2
181 0 m 1
 381 439 l 1
 186 487 124 642 124 752 c 0
 124 893 218 1055 489 1055 c 2
 944 1055 l 1
 944 0 l 1
 822 0 l 1
 822 432 l 1
 504 432 l 1
 310 0 l 1
 181 0 l 1
EndSplineSet
EndChar
StartChar: uni0452
Encoding: 1106 1106 525
Width: 1334
VWidth: 0
Flags: W
HStem: -280 128<794 976.782> 0 21G<294 444> 724 136<624.142 935.807> 1072 101<201 294 444 861> 1445 20G<294 444>
VStem: 294 150<0 567.23 671 1072 1173 1465> 1018 152<-119.941 632.534>
LayerCount: 2
UndoRedoHistory
Layer: 1
Undoes
EndUndoes
Redoes
EndRedoes
EndUndoRedoHistory
Fore
SplineSet
794 -280 m 1
 783 -152 l 1
 819 -152 l 2
 996 -152 1018 -117 1018 95 c 2
 1018 355 l 2
 1018 599 985 724 791 724 c 0
 614 724 472 585 444 479 c 1
 444 0 l 1
 294 0 l 1
 294 1072 l 1
 201 1072 l 1
 201 1173 l 1
 294 1173 l 1
 294 1465 l 1
 444 1465 l 1
 444 1173 l 1
 861 1173 l 1
 861 1072 l 1
 444 1072 l 1
 444 671 l 1
 535 789 652 860 806 860 c 0
 1056 860 1170 707 1170 427 c 2
 1170 147 l 2
 1170 -153 1149 -280 860 -280 c 2
 794 -280 l 1
EndSplineSet
EndChar
StartChar: uni045A
Encoding: 1114 1114 531
Width: 1577
VWidth: 0
Flags: W
HStem: 0 120<975 1341.68> 499 124<326 814 975 1353.57> 1040 20G<163 326 814 975>
VStem: 163 163<0 499 623 1060> 814 161<120 499 623 1060> 1405 138<179.586 448.529>
LayerCount: 2
UndoRedoHistory
Layer: 1
Undoes
EndUndoes
Redoes
EndRedoes
EndUndoRedoHistory
Fore
SplineSet
975 120 m 1
 1205 120 l 2
 1353 120 1405 213 1405 315 c 0
 1405 417 1355 507 1205 507 c 2
 975 507 l 1
 975 120 l 1
163 0 m 1
 163 1060 l 1
 326 1060 l 1
 326 623 l 1
 814 623 l 1
 814 1060 l 1
 975 1060 l 1
 975 623 l 1
 1210 623 l 2
 1446 623 1543 486 1543 312 c 0
 1543 147 1438 0 1209 0 c 2
 814 0 l 1
 814 499 l 1
 326 499 l 1
 326 0 l 1
 163 0 l 1
EndSplineSet
EndChar
StartChar: uni045F
Encoding: 1119 1119 535
Width: 1077
VWidth: 0
Flags: W
HStem: 0 115<288 514 633 802> 1039 20G<148 288 802 942>
VStem: 148 140<115 1059> 518 111<-260 0> 802 140<115 1059>
LayerCount: 2
UndoRedoHistory
Layer: 1
Undoes
EndUndoes
Redoes
EndRedoes
EndUndoRedoHistory
Fore
SplineSet
518 -260 m 1
 514 0 l 1
 148 0 l 1
 148 1059 l 1
 288 1059 l 1
 288 115 l 1
 802 115 l 1
 802 1059 l 1
 942 1059 l 1
 942 0 l 1
 633 0 l 1
 629 -260 l 1
 518 -260 l 1
EndSplineSet
EndChar
StartChar: endash
Encoding: 8211 8211 207
Width: 1236
VWidth: 0
GlyphClass: 2
Flags: W
HStem: 521 134<119 1123>
LayerCount: 2
UndoRedoHistory
Layer: 1
Undoes
EndUndoes
Redoes
EndRedoes
EndUndoRedoHistory
Fore
SplineSet
119 521 m 1
 119 655 l 1
 1123 655 l 1
 1123 521 l 1
 119 521 l 1
EndSplineSet
EndChar
StartChar: emdash
Encoding: 8212 8212 207
Width: 2356
VWidth: 0
Flags: W
HStem: 521 134<132 2244>
LayerCount: 2
UndoRedoHistory
Layer: 1
Undoes
EndUndoes
Redoes
EndRedoes
EndUndoRedoHistory
Fore
SplineSet
132 521 m 1
 132 655 l 1
 2244 655 l 1
 2244 521 l 1
 132 521 l 1
EndSplineSet
EndChar
StartChar: quoteleft
Encoding: 8216 8216 313
Width: 463
VWidth: 0
Flags: W
HStem: 1015 425<203 314>
VStem: 202 112<1033.81 1440> 203 126<1015 1421.19>
LayerCount: 2
UndoRedoHistory
Layer: 1
Undoes
EndUndoes
Redoes
EndRedoes
EndUndoRedoHistory
Fore
SplineSet
203 1015 m 1xa0
 202 1440 l 1
 314 1440 l 1xc0
 329 1015 l 1
 203 1015 l 1xa0
EndSplineSet
EndChar
StartChar: quoteright
Encoding: 8217 8217 312
Width: 456
VWidth: 0
GlyphClass: 2
Flags: W
HStem: 1015 425<216 226>
VStem: 129 221
LayerCount: 2
UndoRedoHistory
Layer: 1
Undoes
EndUndoes
Redoes
EndRedoes
EndUndoRedoHistory
Fore
SplineSet
129 1015 m 1
 216 1440 l 1
 350 1440 l 1
 226 1015 l 1
 129 1015 l 1
EndSplineSet
EndChar
StartChar: quotesinglbase
Encoding: 8218 8218 315
Width: 436
VWidth: 0
Flags: W
HStem: -248 452<182 196>
VStem: 97 223
LayerCount: 2
UndoRedoHistory
Layer: 1
Undoes
EndUndoes
Redoes
EndRedoes
EndUndoRedoHistory
Fore
SplineSet
97 -248 m 1
 182 204 l 1
 320 204 l 1
 196 -248 l 1
 97 -248 l 1
EndSplineSet
EndChar
StartChar: quotedblleft
Encoding: 8220 8220 311
Width: 762
VWidth: 0
Flags: W
HStem: 1019 580
VStem: 127 526
LayerCount: 2
UndoRedoHistory
Layer: 1
Undoes
EndUndoes
Redoes
EndRedoes
EndUndoRedoHistory
Fore
SplineSet
585 1086 m 1
 428 1019 l 1
 540 1533 l 1
 653 1599 l 1
 585 1086 l 1
278 1086 m 1
 127 1019 l 1
 236 1533 l 1
 354 1599 l 1
 278 1086 l 1
EndSplineSet
EndChar
StartChar: quotedblright
Encoding: 8221 8221 310
Width: 682
VWidth: 0
GlyphClass: 2
Flags: W
HStem: 1111 415
VStem: 84 520
LayerCount: 2
UndoRedoHistory
Layer: 1
Undoes
EndUndoes
Redoes
EndRedoes
EndUndoRedoHistory
Fore
SplineSet
377 1111 m 1
 462 1526 l 1
 604 1526 l 1
 476 1111 l 1
 377 1111 l 1
84 1107 m 1
 171 1526 l 1
 310 1526 l 1
 182 1107 l 1
 84 1107 l 1
EndSplineSet
EndChar
StartChar: quotedblbase
Encoding: 8222 8222 310
Width: 708
VWidth: 0
Flags: W
HStem: -248 452<207 223 468 483>
VStem: 125 483
LayerCount: 2
UndoRedoHistory
Layer: 1
Undoes
EndUndoes
Redoes
EndRedoes
EndUndoRedoHistory
Fore
SplineSet
387 -248 m 1
 468 204 l 1
 608 204 l 1
 483 -248 l 1
 387 -248 l 1
125 -248 m 1
 207 204 l 1
 343 204 l 1
 223 -248 l 1
 125 -248 l 1
EndSplineSet
EndChar
StartChar: dagger
Encoding: 8224 8224 186
Width: 911
VWidth: 0
Flags: W
HStem: 971 99<113 400 509 800>
VStem: 400 109<118 971 1070 1443>
LayerCount: 2
UndoRedoHistory
Layer: 1
Undoes
EndUndoes
Redoes
EndRedoes
EndUndoRedoHistory
Fore
SplineSet
400 118 m 1
 400 971 l 1
 113 971 l 1
 113 1070 l 1
 400 1070 l 1
 400 1443 l 1
 507 1443 l 1
 507 1070 l 1
 800 1070 l 1
 800 971 l 1
 509 971 l 1
 509 118 l 1
 400 118 l 1
EndSplineSet
EndChar
StartChar: bullet
Encoding: 8226 8226 170
Width: 831
VWidth: 0
GlyphClass: 2
Flags: W
HStem: 413 645<263.909 585.365>
VStem: 110 630<567.618 902.289>
LayerCount: 2
UndoRedoHistory
Layer: 1
Undoes
EndUndoes
Redoes
EndRedoes
EndUndoRedoHistory
Fore
SplineSet
422 413 m 0
 258 413 110 528 110 732 c 0
 110 939 262 1058 427 1058 c 0
 591 1058 740 942 740 737 c 0
 740 531 587 413 422 413 c 0
EndSplineSet
EndChar
StartChar: ellipsis
Encoding: 8230 8230 205
Width: 1448
VWidth: 0
Flags: W
HStem: -12 257<144.742 343.097 626.266 824.62 1106.74 1305.62>
VStem: 114 259<17.7502 215.634> 596 259<17.7502 215.634> 1076 260<17.7502 215.634>
CounterMasks: 1 70
LayerCount: 2
UndoRedoHistory
Layer: 1
Undoes
EndUndoes
Redoes
EndRedoes
EndUndoRedoHistory
Fore
SplineSet
1206 -12 m 0
 1120 -12 1076 53 1076 117 c 0
 1076 181 1119 245 1206 245 c 0
 1293 245 1336 181 1336 117 c 0
 1336 53 1293 -12 1206 -12 c 0
725 -12 m 0
 639 -12 596 53 596 117 c 0
 596 181 638 245 725 245 c 0
 812 245 855 181 855 117 c 0
 855 53 812 -12 725 -12 c 0
244 -12 m 0
 158 -12 114 53 114 117 c 0
 114 181 157 245 244 245 c 0
 331 245 373 181 373 117 c 0
 373 53 331 -12 244 -12 c 0
EndSplineSet
EndChar
StartChar: guilsinglright
Encoding: 8250 8250 231
Width: 607
VWidth: 0
Flags: W
VStem: 111 431
LayerCount: 2
UndoRedoHistory
Layer: 1
Undoes
EndUndoes
Redoes
EndRedoes
EndUndoRedoHistory
Fore
SplineSet
111 148 m 1
 401 568 l 1
 117 980 l 1
 248 980 l 1
 542 568 l 1
 244 148 l 1
 111 148 l 1
EndSplineSet
EndChar
StartChar: fraction
Encoding: 8260 8260 216
Width: 1139
VWidth: 0
GlyphClass: 2
Flags: W
HStem: 0 21G<127 274.212> 1488 20G<895.668 1034>
LayerCount: 2
UndoRedoHistory
Layer: 1
Undoes
EndUndoes
Redoes
EndRedoes
EndUndoRedoHistory
Fore
SplineSet
127 0 m 1
 906 1508 l 1
 1034 1508 l 1
 264 0 l 1
 127 0 l 1
EndSplineSet
EndChar
StartChar: uni2074
Encoding: 8308 8308 554
Width: 734
VWidth: 0
Flags: W
HStem: 851 99<214 438 528 618>
VStem: 438 90<649 851 950 1327>
LayerCount: 2
UndoRedoHistory
Layer: 1
Undoes
EndUndoes
Redoes
EndRedoes
EndUndoRedoHistory
Fore
SplineSet
214 950 m 1
 438 950 l 1
 439 1327 l 1
 214 950 l 1
438 649 m 1
 438 851 l 1
 120 851 l 1
 120 941 l 1
 425 1482 l 1
 528 1482 l 1
 528 950 l 1
 618 950 l 1
 626 851 l 1
 525 851 l 1
 526 649 l 1
 438 649 l 1
EndSplineSet
EndChar
StartChar: Euro
Encoding: 8364 8364 38
Width: 1289
VWidth: 0
Flags: W
HStem: -19 140<619.642 1091.11> 524 109<27 142.8 337.246 906> 808 106<32 141.634 335.855 914> 1319 140<616.592 1068.54>
VStem: 139 176<633 808>
CounterMasks: 1 f0
LayerCount: 2
UndoRedoHistory
Layer: 1
Undoes
EndUndoes
Redoes
EndRedoes
EndUndoRedoHistory
Fore
SplineSet
1201 66 m 1
 1121 23 999 -19 827 -19 c 0
 496.580827977 -19 233.904760736 171.237486033 156.079282507 524 c 1
 19 524 l 1
 27 633 l 1
 142.800496178 633 l 1
 140.748517912 665.648785752 139 704.504111915 139 725 c 1
 139 742.902634061 140.22641954 777.975141675 141.633728132 808 c 1
 26 808 l 1
 32 914 l 1
 153.3094506 914 l 1
 226.973307801 1265.54418365 479.150008852 1459 817 1459 c 0
 987 1459 1129 1413 1221 1347 c 1
 1161 1230 l 1
 1073 1285 952 1319 833 1319 c 0
 582.809210216 1319 401.773726469 1178.89314621 335.855232854 914 c 1
 922 914 l 1
 914 808 l 1
 317.987520383 808 l 1
 316.271894615 776.298040429 315 738.533775477 315 719 c 0
 315 700.239495633 316.673990602 663.902089942 318.668311979 633 c 1
 914 633 l 1
 906 524 l 1
 337.246001185 524 l 1
 404.096136291 259.646499833 585.457313295 121 852 121 c 0
 975 121 1076 154 1160 195 c 1
 1201 66 l 1
EndSplineSet
EndChar
StartChar: trademark
Encoding: 8482 8482 346
Width: 1770
VWidth: 0
Flags: W
HStem: 1365 86<86 338 433 694>
VStem: 338 95<582 1365> 830 92<582 1341> 1563 94<582 1339>
CounterMasks: 1 70
LayerCount: 2
UndoRedoHistory
Layer: 1
Undoes
EndUndoes
Redoes
EndRedoes
EndUndoRedoHistory
Fore
SplineSet
338 582 m 1
 338 1365 l 1
 85 1365 l 1
 86 1451 l 1
 694 1451 l 1
 694 1365 l 1
 433 1365 l 1
 433 582 l 1
 338 582 l 1
830 582 m 1
 830 1451 l 1
 966 1451 l 1
 1241 778 l 1
 1529 1451 l 1
 1657 1451 l 1
 1657 582 l 1
 1563 582 l 1
 1563 1339 l 1
 1272 660 l 1
 1195 660 l 1
 922 1341 l 1
 922 582 l 1
 830 582 l 1
EndSplineSet
EndChar
StartChar: partialdiff
Encoding: 8706 8706 296
Width: 1182
VWidth: 0
GlyphClass: 2
Flags: W
HStem: -27 143<380.371 644.419> 911 138<477.053 768.77> 1467 141<398.874 734.306>
VStem: 123 143<242.117 657.165> 906 148<877 1244.07>
CounterMasks: 1 e0
LayerCount: 2
UndoRedoHistory
Layer: 1
Undoes
EndUndoes
Redoes
EndRedoes
EndUndoRedoHistory
Fore
SplineSet
510 116 m 0
 721 116 861 373 892 687 c 1
 858 805 767 911 627 911 c 0
 425 911 266 694 266 439 c 0
 266 244 361 116 510 116 c 0
509 -27 m 0
 240 -27 123 177 123 440 c 0
 123 785 321 1049 602 1049 c 0
 736 1049 839 987 905 877 c 1
 905 895 906 927 906 954 c 0
 906 1271 793 1467 582 1467 c 0
 482 1467 384 1424 306 1369 c 1
 293 1512 l 1
 374 1568 486 1608 606 1608 c 0
 896 1608 1054 1383 1054 892 c 0
 1054 440 893 -27 509 -27 c 0
EndSplineSet
EndChar
StartChar: uni2206
Encoding: 8710 8710 553
Width: 1358
VWidth: 0
GlyphClass: 2
Flags: W
HStem: 0 169<302 1059> 1480 20G<581.197 780.789>
LayerCount: 2
UndoRedoHistory
Layer: 1
Undoes
EndUndoes
Redoes
EndRedoes
EndUndoRedoHistory
Fore
SplineSet
302 169 m 1
 1059 169 l 1
 710 1163 l 1
 676 1278 l 1
 644 1163 l 1
 302 169 l 1
106 0 m 1
 106 83 l 1
 588 1500 l 1
 774 1500 l 1
 1255 83 l 1
 1255 0 l 1
 106 0 l 1
EndSplineSet
EndChar
StartChar: product
Encoding: 8719 8719 305
Width: 1428
VWidth: 0
Flags: W
HStem: 0 21G<146 319 1112 1284> 1306 150<319 1112>
VStem: 146 173<0 1306> 1112 172<0 1306>
LayerCount: 2
UndoRedoHistory
Layer: 1
Undoes
EndUndoes
Redoes
EndRedoes
EndUndoRedoHistory
Fore
SplineSet
146 0 m 1
 146 1456 l 1
 1284 1456 l 1
 1284 0 l 1
 1112 0 l 1
 1112 1306 l 1
 319 1306 l 1
 319 0 l 1
 146 0 l 1
EndSplineSet
EndChar
StartChar: summation
Encoding: 8721 8721 336
Width: 1259
VWidth: 0
GlyphClass: 2
Flags: W
HStem: -349 148<276 1176> 1354 140<300 1138>
LayerCount: 2
UndoRedoHistory
Layer: 1
Undoes
EndUndoes
Redoes
EndRedoes
EndUndoRedoHistory
Fore
SplineSet
97 -349 m 1
 97 -260 l 1
 704 580 l 1
 119 1401 l 1
 119 1494 l 1
 1138 1494 l 1
 1138 1354 l 1
 300 1354 l 1
 895 588 l 1
 276 -201 l 1
 1176 -201 l 1
 1176 -349 l 1
 97 -349 l 1
EndSplineSet
EndChar
StartChar: minus
Encoding: 8722 8722 263
Width: 1148
VWidth: 0
GlyphClass: 2
Flags: W
HStem: 528 135<87 1045>
LayerCount: 2
UndoRedoHistory
Layer: 1
Undoes
EndUndoes
Redoes
EndRedoes
EndUndoRedoHistory
Fore
SplineSet
87 528 m 1
 87 663 l 1
 1045 663 l 1
 1045 528 l 1
 87 528 l 1
EndSplineSet
EndChar
StartChar: radical
Encoding: 8730 8730 319
Width: 1241
VWidth: 0
Flags: W
LayerCount: 2
UndoRedoHistory
Layer: 1
Undoes
EndUndoes
Redoes
EndRedoes
EndUndoRedoHistory
Fore
SplineSet
597 -162 m 1
 273 723 l 1
 124 693 l 1
 109 811 l 1
 363 866 l 1
 597 224 l 1
 655 43 l 1
 787 587 918 1128 1051 1672 c 1
 1161 1672 l 1
 732 -162 l 1
 597 -162 l 1
EndSplineSet
EndChar
StartChar: infinity
Encoding: 8734 8734 245
Width: 1735
VWidth: 0
Flags: W
HStem: 247 124<330.131 603.469 1133.23 1406.58> 870 120<321.545 605.454 1130.48 1406.08>
VStem: 113 111<479.452 772.102> 1497 120<471.323 779.592>
LayerCount: 2
UndoRedoHistory
Layer: 1
Undoes
EndUndoes
Redoes
EndRedoes
EndUndoRedoHistory
Fore
SplineSet
1273 371 m 0
 1425 371 1497 493 1497 647 c 0
 1497 768 1402 870 1269 870 c 0
 1134 870 1025 750 938 622 c 1
 1058 458 1149 371 1273 371 c 0
464 371 m 0
 593 371 706 485 798 620 c 1
 707 763 597 870 457 870 c 0
 313 870 224 756 224 622 c 0
 224 496 320 371 464 371 c 0
462 247 m 0
 241 247 113 429 113 642 c 0
 113 836 266 990 458 990 c 0
 625 990 748 884 868 725 c 1
 980 879 1103 990 1273 990 c 0
 1494 990 1617 837 1617 625 c 0
 1617 402 1465 247 1271 247 c 0
 1123 247 1001 334 868 511 c 1
 751 357 625 247 462 247 c 0
EndSplineSet
EndChar
StartChar: integral
Encoding: 8747 8747 244
Width: 719
VWidth: 0
GlyphClass: 2
Flags: W
HStem: -411 92<51 254.747> 1378 92<462.499 651.129>
VStem: 303 116<-270.704 1337.45>
LayerCount: 2
UndoRedoHistory
Layer: 1
Undoes
EndUndoes
Redoes
EndRedoes
EndUndoRedoHistory
Fore
SplineSet
162 -411 m 0
 129 -411 92 -407 51 -398 c 1
 51 -306 l 1
 87 -315 120 -319 147 -319 c 0
 284 -319 303 -209 303 -49 c 2
 303 1115 l 2
 303 1350 365 1470 536 1470 c 0
 570 1470 609 1465 653 1455 c 1
 653 1363 l 1
 617 1373 587 1378 560 1378 c 0
 443 1378 419 1280 419 1124 c 2
 419 -41 l 2
 419 -281 343 -411 162 -411 c 0
EndSplineSet
EndChar
StartChar: approxequal
Encoding: 8776 8776 153
Width: 1241
VWidth: 0
Flags: W
HStem: 416 111<734.312 963.089> 572 109<723.43 960.871> 594 113<290.731 533.955> 749 111<285.508 536.558>
VStem: 124 95<426.736 515.703> 1025 96<749.79 849.792>
LayerCount: 2
UndoRedoHistory
Layer: 1
Undoes
EndUndoes
Redoes
EndRedoes
EndUndoRedoHistory
Fore
SplineSet
121 584 m 1xbc
 148 757 249 860 403 860 c 0
 489 860 561 823 654 766 c 0
 745 710 801 681 857 681 c 0xdc
 945 681 997 746 1025 860 c 1
 1121 848 l 1
 1111.59091019 790.873383297 1097.55201195 740.97378464 1076.72036959 699.894946101 c 1
 1124 693 l 1
 1097 524 1030 416 858 416 c 0
 780 416 699 449 587 518 c 1
 520 561 460 594 404 594 c 0
 304 594 249 524 219 414 c 1
 124 429 l 1
 132.881927953 486.897011845 149.23068231 536.786122909 172.690279096 577.67057807 c 1
 121 584 l 1xbc
986.61861197 601.788331928 m 1
 951.827187355 582.357028518 909.201276672 572 857 572 c 0xdc
 775 572 696 606 585 676 c 0
 518 719 457 749 401 749 c 0
 334.281064147 749 288.071546083 719.326799795 256.606261355 667.763398396 c 1
 296.92273929 693.470241793 345.54835134 707 402 707 c 1xbc
 493 707 576 663 654 617 c 1
 731 573 798 527 860 527 c 0
 915.541089159 527 956.741623946 553.689365082 986.61861197 601.788331928 c 1
EndSplineSet
EndChar
StartChar: lessequal
Encoding: 8804 8804 257
Width: 1179
VWidth: 0
GlyphClass: 2
Flags: W
HStem: 1 117<123 1064>
LayerCount: 2
UndoRedoHistory
Layer: 1
Undoes
EndUndoes
Redoes
EndRedoes
EndUndoRedoHistory
Fore
SplineSet
123 1 m 1
 123 118 l 1
 1064 118 l 1
 1064 1 l 1
 123 1 l 1
1035 252 m 1
 158 711 l 1
 158 791 l 1
 1035 1274 l 1
 1035 1137 l 1
 336 752 l 1
 1035 387 l 1
 1035 252 l 1
EndSplineSet
EndChar
StartChar: greaterequal
Encoding: 8805 8805 227
Width: 1176
VWidth: 0
Flags: W
HStem: 8 122<128 1062>
LayerCount: 2
UndoRedoHistory
Layer: 1
Undoes
EndUndoes
Redoes
EndRedoes
EndUndoRedoHistory
Fore
SplineSet
128 8 m 1
 128 130 l 1
 1062 131 l 1
 1062 8 l 1
 128 8 l 1
158 230 m 1
 158 364 l 1
 918 740 l 1
 162 1141 l 1
 162 1277 l 1
 1043 779 l 1
 1043 701 l 1
 158 230 l 1
EndSplineSet
EndChar
StartChar: lozenge
Encoding: 9674 9674 261
Width: 1143
VWidth: 0
Flags: W
LayerCount: 2
UndoRedoHistory
Layer: 1
Undoes
EndUndoes
Redoes
EndRedoes
EndUndoRedoHistory
Fore
SplineSet
568 89 m 1
 687 307 808 528 928 747 c 1
 812 964 694 1182 580 1402 c 1
 459 1186 340 967 220 749 c 1
 338 530 448 303 568 89 c 1
520 -47 m 1
 112 747 l 1
 527 1545 l 1
 628 1545 l 1
 1036 749 l 1
 620 -47 l 1
 520 -47 l 1
EndSplineSet
EndChar
StartChar: .notdef
Encoding: 65536 -1 0
Width: 951
VWidth: 0
Flags: W
HStem: 89 97<193 775> 870 97<193 775>
VStem: 96 97<186 870> 775 96<186 870>
LayerCount: 2
UndoRedoHistory
Layer: 1
Undoes
EndUndoes
Redoes
EndRedoes
EndUndoRedoHistory
Fore
SplineSet
96 89 m 1
 96 967 l 1
 871 967 l 1
 871 89 l 1
 96 89 l 1
193 186 m 1
 775 186 l 1
 775 870 l 1
 193 870 l 1
 193 186 l 1
EndSplineSet
EndChar
StartChar: middot
Encoding: 65537 -1 264
Width: 398
VWidth: 0
Flags: W
HStem: 547 192<114 278>
VStem: 114 164<547 739>
LayerCount: 2
UndoRedoHistory
Layer: 1
Undoes
EndUndoes
Redoes
EndRedoes
EndUndoRedoHistory
Fore
SplineSet
114 547 m 1
 114 739 l 1
 278 739 l 1
 278 547 l 1
 114 547 l 1
EndSplineSet
EndChar
StartChar: u.alt
Encoding: 65538 -1 349
Width: 1190
VWidth: 0
Flags: W
HStem: -21 126<421.957 768.244> 1039 20G<162 328 862 1028>
VStem: 162 166<206.36 1059> 862 166<205.93 1059>
LayerCount: 2
UndoRedoHistory
Layer: 1
Undoes
EndUndoes
Redoes
EndRedoes
EndUndoRedoHistory
Fore
SplineSet
595 -21 m 0
 300 -21 162 109 162 412 c 2
 162 1059 l 1
 328 1059 l 1
 328 394 l 1
 327 216 390 105 595 105 c 0
 800 105 863 216 862 394 c 1
 862 1059 l 1
 1028 1059 l 1
 1028 412 l 2
 1028 108 891 -21 595 -21 c 0
EndSplineSet
EndChar
